<svg width="28" height="28" viewBox="0 0 28 28" fill="none" xmlns="http://www.w3.org/2000/svg">
<path d="M13.2066 3.5H5.93827C3.6166 3.5 2.44994 4.67833 2.44994 7.02333V25.6667H8.74994V21.2917C8.74994 20.8133 9.1466 20.4167 9.62494 20.4167C10.1033 20.4167 10.4999 20.8017 10.4999 21.2917V25.6667H16.6833V7.02333C16.6833 4.67833 15.5283 3.5 13.2066 3.5ZM12.5416 14.875H6.7666C6.28827 14.875 5.8916 14.4783 5.8916 14C5.8916 13.5217 6.28827 13.125 6.7666 13.125H12.5416C13.0199 13.125 13.4166 13.5217 13.4166 14C13.4166 14.4783 13.0199 14.875 12.5416 14.875ZM12.5416 10.5H6.7666C6.28827 10.5 5.8916 10.1033 5.8916 9.625C5.8916 9.14667 6.28827 8.75 6.7666 8.75H12.5416C13.0199 8.75 13.4166 9.14667 13.4166 9.625C13.4166 10.1033 13.0199 10.5 12.5416 10.5Z" fill="url(#paint0_linear_369_48)"/>
<path d="M26.8333 24.7916H24.1849V21.2916C25.2933 20.93 26.0983 19.8916 26.0983 18.6666V16.3333C26.0983 14.805 24.8499 13.5566 23.3216 13.5566C21.7933 13.5566 20.5449 14.805 20.5449 16.3333V18.6666C20.5449 19.88 21.3383 20.9066 22.4233 21.28V24.7916H1.1666C0.68827 24.7916 0.291603 25.1883 0.291603 25.6666C0.291603 26.145 0.68827 26.5416 1.1666 26.5416H23.2516C23.2749 26.5416 23.2866 26.5533 23.3099 26.5533C23.3333 26.5533 23.3449 26.5416 23.3683 26.5416H26.8333C27.3116 26.5416 27.7083 26.145 27.7083 25.6666C27.7083 25.1883 27.3116 24.7916 26.8333 24.7916Z" fill="url(#paint1_linear_369_48)"/>
<defs>
<linearGradient id="paint0_linear_369_48" x1="2.44994" y1="3.5" x2="-3.13455" y2="19.6502" gradientUnits="userSpaceOnUse">
<stop stop-color="#A13332"/>
<stop offset="1" stop-color="#A9518B"/>
</linearGradient>
<linearGradient id="paint1_linear_369_48" x1="0.291603" y1="13.5566" x2="-0.811977" y2="24.0418" gradientUnits="userSpaceOnUse">
<stop stop-color="#A13332"/>
<stop offset="1" stop-color="#A9518B"/>
</linearGradient>
</defs>
</svg>
