<svg width="25" height="24" viewBox="0 0 25 24" fill="none" xmlns="http://www.w3.org/2000/svg">
<path fill-rule="evenodd" clip-rule="evenodd" d="M12.333 22C17.8559 22 22.333 17.5228 22.333 12C22.333 6.47715 17.8559 2 12.333 2C6.81016 2 2.33301 6.47715 2.33301 12C2.33301 17.5228 6.81016 22 12.333 22ZM16.925 9.46049C17.1793 9.13353 17.1204 8.66232 16.7935 8.40802C16.4665 8.15372 15.9953 8.21262 15.741 8.53958L11.734 13.6914C11.6449 13.806 11.4773 13.8209 11.3694 13.7238L8.83474 11.4426C8.52686 11.1655 8.05264 11.1904 7.77554 11.4983C7.49845 11.8062 7.52341 12.2804 7.83129 12.5575L10.366 14.8387C11.1211 15.5183 12.2943 15.4143 12.918 14.6123L16.925 9.46049Z" fill="white"/>
</svg>
