<svg width="25" height="24" viewBox="0 0 25 24" fill="none" xmlns="http://www.w3.org/2000/svg">
<path fill-rule="evenodd" clip-rule="evenodd" d="M12.667 22C18.1898 22 22.667 17.5228 22.667 12C22.667 6.47715 18.1898 2 12.667 2C7.14415 2 2.66699 6.47715 2.66699 12C2.66699 17.5228 7.14415 22 12.667 22ZM17.259 9.46049C17.5133 9.13353 17.4544 8.66232 17.1275 8.40802C16.8005 8.15372 16.3293 8.21262 16.075 8.53958L12.068 13.6914C11.9789 13.806 11.8113 13.8209 11.7034 13.7238L9.16872 11.4426C8.86084 11.1655 8.38662 11.1904 8.10953 11.4983C7.83243 11.8062 7.85739 12.2804 8.16528 12.5575L10.7 14.8387C11.4551 15.5183 12.6283 15.4143 13.252 14.6123L17.259 9.46049Z" fill="#A9518B"/>
</svg>
