<svg width="40" height="40" viewBox="0 0 40 40" fill="none" xmlns="http://www.w3.org/2000/svg">
<g clip-path="url(#clip0_25_726)">
<path d="M39.9999 20C39.9999 8.9544 31.0455 0 19.9999 0C8.95428 0 -0.00012207 8.9544 -0.00012207 20C-0.00012207 29.3792 6.45748 37.2496 15.1687 39.4112V26.112H11.0447V20H15.1687V17.3664C15.1687 10.5592 18.2495 7.404 24.9327 7.404C26.1999 7.404 28.3863 7.6528 29.2807 7.9008V13.4408C28.8087 13.3912 27.9887 13.3664 26.9703 13.3664C23.6911 13.3664 22.4239 14.6088 22.4239 17.8384V20H28.9567L27.8343 26.112H22.4239V39.8536C32.3271 38.6576 40.0007 30.2256 40.0007 20H39.9999Z" fill="url(#paint0_linear_25_726)"/>
<path d="M27.8335 26.1121L28.9559 20.0001H22.4231V17.8385C22.4231 14.6089 23.6903 13.3665 26.9695 13.3665C27.9879 13.3665 28.8079 13.3913 29.2799 13.4409V7.90085C28.3855 7.65205 26.1991 7.40405 24.9319 7.40405C18.2487 7.40405 15.1679 10.5593 15.1679 17.3665V20.0001H11.0439V26.1121H15.1679V39.4113C16.7151 39.7953 18.3335 40.0001 19.9991 40.0001C20.8191 40.0001 21.6279 39.9496 22.4223 39.8537V26.1121H27.8327H27.8335Z" fill="white"/>
</g>
<defs>
<linearGradient id="paint0_linear_25_726" x1="-0.00012207" y1="0" x2="-6.8559" y2="30.9917" gradientUnits="userSpaceOnUse">
<stop stop-color="#A13332"/>
<stop offset="1" stop-color="#A9518B"/>
</linearGradient>
<clipPath id="clip0_25_726">
<rect width="40" height="40" fill="white"/>
</clipPath>
</defs>
</svg>
