<svg width="16" height="16" viewBox="0 0 16 16" fill="none" xmlns="http://www.w3.org/2000/svg">
<path d="M13.7326 2.73348V4.20015C13.7326 4.73348 13.3993 5.40015 13.0659 5.73348L10.1993 8.26681C9.79927 8.60015 9.53261 9.26681 9.53261 9.80015V12.6668C9.53261 13.0668 9.26594 13.6001 8.93261 13.8001L7.99927 14.4001C7.13261 14.9335 5.93261 14.3335 5.93261 13.2668V9.73348C5.93261 9.26681 5.66594 8.66681 5.39927 8.33348L5.08594 8.00681C4.87927 7.78681 4.83927 7.45348 5.00594 7.19348L8.41927 1.71348C8.53927 1.52015 8.75261 1.40015 8.98594 1.40015H12.3993C13.1326 1.40015 13.7326 2.00015 13.7326 2.73348Z" fill="#A9518B"/>
<path d="M6.90091 2.42015L4.53425 6.21348C4.30758 6.58015 3.78758 6.63348 3.48758 6.32015L2.86758 5.66681C2.53424 5.33348 2.26758 4.73348 2.26758 4.33348V2.80015C2.26758 2.00015 2.86758 1.40015 3.60091 1.40015H6.33424C6.85424 1.40015 7.17425 1.97348 6.90091 2.42015Z" fill="#A9518B"/>
</svg>
