<svg width="237" height="100" viewBox="0 0 237 100" fill="none" xmlns="http://www.w3.org/2000/svg">
<path d="M15.8695 51.9396C15.1099 52.9162 14.269 53.6035 13.3466 54.0013C12.4243 54.3811 11.4929 54.571 10.5525 54.571C9.06957 54.571 7.73129 54.3178 6.53769 53.8114C5.36217 53.287 4.3675 52.5726 3.55368 51.6684C2.73986 50.7641 2.11593 49.7062 1.68189 48.4945C1.24786 47.2647 1.03084 45.9445 1.03084 44.5339C1.03084 43.0871 1.24786 41.7488 1.68189 40.519C2.11593 39.2712 2.73986 38.1861 3.55368 37.2638C4.3675 36.3414 5.36217 35.618 6.53769 35.0936C7.73129 34.5691 9.06957 34.3069 10.5525 34.3069C11.5472 34.3069 12.5057 34.4606 13.428 34.768C14.3684 35.0574 15.2094 35.4914 15.9509 36.0702C16.7104 36.6489 17.3344 37.3632 17.8227 38.2132C18.3109 39.0632 18.6093 40.0398 18.7179 41.143H14.6488C14.3956 40.0579 13.9073 39.2441 13.1839 38.7015C12.4605 38.159 11.5834 37.8877 10.5525 37.8877C9.59403 37.8877 8.78021 38.0776 8.11107 38.4574C7.44193 38.8191 6.89938 39.3164 6.48343 39.9494C6.06748 40.5643 5.76004 41.2696 5.5611 42.0653C5.38025 42.861 5.28983 43.6839 5.28983 44.5339C5.28983 45.3477 5.38025 46.1434 5.5611 46.9211C5.76004 47.6807 6.06748 48.3679 6.48343 48.9828C6.89938 49.5977 7.44193 50.095 8.11107 50.4748C8.78021 50.8365 9.59403 51.0173 10.5525 51.0173C11.9632 51.0173 13.0482 50.6647 13.8078 49.9594C14.5855 49.236 15.0376 48.1961 15.1642 46.8397H10.8781V43.6658H19.0163V54.137H16.3035L15.8695 51.9396ZM21.886 40.1121H25.5482V42.7164H25.6025C25.7833 42.2823 26.0275 41.8845 26.3349 41.5228C26.6424 41.143 26.995 40.8265 27.3929 40.5733C27.7907 40.302 28.2157 40.094 28.6679 39.9494C29.12 39.8047 29.5902 39.7323 30.0785 39.7323C30.3317 39.7323 30.612 39.7776 30.9194 39.868V43.4488C30.7386 43.4126 30.5216 43.3855 30.2684 43.3674C30.0152 43.3312 29.771 43.3132 29.5359 43.3132C28.8306 43.3132 28.2338 43.4307 27.7455 43.6658C27.2572 43.9009 26.8594 44.2264 26.5519 44.6424C26.2626 45.0403 26.0546 45.5105 25.928 46.053C25.8014 46.5956 25.7381 47.1833 25.7381 47.8163V54.137H21.886V40.1121ZM35.2081 47.1381C35.2081 47.6987 35.2624 48.2503 35.3709 48.7929C35.4794 49.3173 35.6602 49.7966 35.9134 50.2306C36.1847 50.6466 36.5373 50.9811 36.9714 51.2343C37.4054 51.4875 37.948 51.6141 38.599 51.6141C39.2501 51.6141 39.7926 51.4875 40.2267 51.2343C40.6788 50.9811 41.0314 50.6466 41.2846 50.2306C41.5559 49.7966 41.7458 49.3173 41.8543 48.7929C41.9628 48.2503 42.0171 47.6987 42.0171 47.1381C42.0171 46.5775 41.9628 46.0259 41.8543 45.4833C41.7458 44.9408 41.5559 44.4615 41.2846 44.0456C41.0314 43.6296 40.6788 43.2951 40.2267 43.0419C39.7926 42.7706 39.2501 42.635 38.599 42.635C37.948 42.635 37.4054 42.7706 36.9714 43.0419C36.5373 43.2951 36.1847 43.6296 35.9134 44.0456C35.6602 44.4615 35.4794 44.9408 35.3709 45.4833C35.2624 46.0259 35.2081 46.5775 35.2081 47.1381ZM31.356 47.1381C31.356 46.0168 31.5278 45.0041 31.8714 44.0999C32.215 43.1775 32.7033 42.3999 33.3363 41.7669C33.9693 41.1158 34.7288 40.6185 35.615 40.2749C36.5012 39.9132 37.4958 39.7323 38.599 39.7323C39.7022 39.7323 40.6969 39.9132 41.583 40.2749C42.4873 40.6185 43.2559 41.1158 43.8888 41.7669C44.5218 42.3999 45.0101 43.1775 45.3537 44.0999C45.6973 45.0041 45.8691 46.0168 45.8691 47.1381C45.8691 48.2594 45.6973 49.2721 45.3537 50.1764C45.0101 51.0806 44.5218 51.8583 43.8888 52.5093C43.2559 53.1423 42.4873 53.6306 41.583 53.9742C40.6969 54.3178 39.7022 54.4896 38.599 54.4896C37.4958 54.4896 36.5012 54.3178 35.615 53.9742C34.7288 53.6306 33.9693 53.1423 33.3363 52.5093C32.7033 51.8583 32.215 51.0806 31.8714 50.1764C31.5278 49.2721 31.356 48.2594 31.356 47.1381ZM51.629 47.1381C51.629 47.6987 51.6833 48.2503 51.7918 48.7929C51.9003 49.3173 52.0812 49.7966 52.3343 50.2306C52.6056 50.6466 52.9583 50.9811 53.3923 51.2343C53.8263 51.4875 54.3689 51.6141 55.0199 51.6141C55.671 51.6141 56.2136 51.4875 56.6476 51.2343C57.0997 50.9811 57.4524 50.6466 57.7056 50.2306C57.9768 49.7966 58.1667 49.3173 58.2752 48.7929C58.3837 48.2503 58.438 47.6987 58.438 47.1381C58.438 46.5775 58.3837 46.0259 58.2752 45.4833C58.1667 44.9408 57.9768 44.4615 57.7056 44.0456C57.4524 43.6296 57.0997 43.2951 56.6476 43.0419C56.2136 42.7706 55.671 42.635 55.0199 42.635C54.3689 42.635 53.8263 42.7706 53.3923 43.0419C52.9583 43.2951 52.6056 43.6296 52.3343 44.0456C52.0812 44.4615 51.9003 44.9408 51.7918 45.4833C51.6833 46.0259 51.629 46.5775 51.629 47.1381ZM47.777 47.1381C47.777 46.0168 47.9488 45.0041 48.2924 44.0999C48.636 43.1775 49.1243 42.3999 49.7572 41.7669C50.3902 41.1158 51.1498 40.6185 52.0359 40.2749C52.9221 39.9132 53.9168 39.7323 55.0199 39.7323C56.1231 39.7323 57.1178 39.9132 58.004 40.2749C58.9082 40.6185 59.6768 41.1158 60.3098 41.7669C60.9427 42.3999 61.431 43.1775 61.7747 44.0999C62.1183 45.0041 62.2901 46.0168 62.2901 47.1381C62.2901 48.2594 62.1183 49.2721 61.7747 50.1764C61.431 51.0806 60.9427 51.8583 60.3098 52.5093C59.6768 53.1423 58.9082 53.6306 58.004 53.9742C57.1178 54.3178 56.1231 54.4896 55.0199 54.4896C53.9168 54.4896 52.9221 54.3178 52.0359 53.9742C51.1498 53.6306 50.3902 53.1423 49.7572 52.5093C49.1243 51.8583 48.636 51.0806 48.2924 50.1764C47.9488 49.2721 47.777 48.2594 47.777 47.1381ZM64.7404 40.1121H68.3755V42.011H68.4298C68.9361 41.2876 69.542 40.727 70.2473 40.3292C70.9707 39.9313 71.7935 39.7323 72.7159 39.7323C73.602 39.7323 74.4068 39.9042 75.1302 40.2478C75.8717 40.5914 76.4323 41.1972 76.8121 42.0653C77.228 41.4504 77.7887 40.9079 78.494 40.4377C79.2174 39.9675 80.0674 39.7323 81.044 39.7323C81.7854 39.7323 82.4727 39.8228 83.1056 40.0036C83.7386 40.1845 84.2812 40.4738 84.7333 40.8717C85.1854 41.2696 85.5381 41.794 85.7912 42.4451C86.0444 43.0781 86.171 43.8467 86.171 44.7509V54.137H82.3189V46.1887C82.3189 45.7184 82.3009 45.2754 82.2647 44.8594C82.2285 44.4435 82.1291 44.0818 81.9663 43.7743C81.8035 43.4669 81.5594 43.2227 81.2339 43.0419C80.9264 42.861 80.5014 42.7706 79.9589 42.7706C79.4163 42.7706 78.9732 42.8791 78.6296 43.0961C78.3041 43.2951 78.0419 43.5663 77.8429 43.91C77.6621 44.2355 77.5355 44.6153 77.4632 45.0493C77.4089 45.4653 77.3818 45.8903 77.3818 46.3243V54.137H73.5297V46.27C73.5297 45.8541 73.5206 45.4472 73.5026 45.0493C73.4845 44.6334 73.4031 44.2536 73.2584 43.91C73.1318 43.5663 72.9058 43.2951 72.5802 43.0961C72.2728 42.8791 71.8116 42.7706 71.1967 42.7706C71.0159 42.7706 70.7717 42.8158 70.4643 42.9062C70.1749 42.9786 69.8856 43.1323 69.5962 43.3674C69.325 43.5844 69.0899 43.91 68.8909 44.344C68.692 44.7599 68.5925 45.3115 68.5925 45.9988V54.137H64.7404V40.1121ZM93.0139 37.9419H89.1618V34.768H93.0139V37.9419ZM89.1618 40.1121H93.0139V54.137H89.1618V40.1121ZM95.8843 40.1121H99.5465V42.0653H99.6279C100.116 41.2515 100.749 40.6637 101.527 40.302C102.304 39.9222 103.1 39.7323 103.914 39.7323C104.945 39.7323 105.786 39.877 106.437 40.1664C107.106 40.4377 107.63 40.8265 108.01 41.3329C108.39 41.8212 108.652 42.427 108.797 43.1504C108.96 43.8557 109.041 44.6424 109.041 45.5105V54.137H105.189V46.2158C105.189 45.0583 105.008 44.1993 104.646 43.6387C104.285 43.06 103.643 42.7706 102.72 42.7706C101.671 42.7706 100.912 43.0871 100.442 43.7201C99.9715 44.335 99.7364 45.3567 99.7364 46.7855V54.137H95.8843V40.1121ZM118.34 50.8274C118.882 50.8274 119.361 50.7189 119.777 50.5019C120.193 50.2849 120.537 49.9955 120.808 49.6338C121.079 49.2721 121.278 48.8652 121.405 48.4131C121.55 47.9429 121.622 47.4546 121.622 46.9482C121.622 46.3695 121.568 45.827 121.459 45.3206C121.351 44.7961 121.17 44.335 120.917 43.9371C120.663 43.5392 120.329 43.2227 119.913 42.9876C119.497 42.7525 118.973 42.635 118.34 42.635C117.797 42.635 117.327 42.7435 116.929 42.9605C116.549 43.1775 116.224 43.4759 115.952 43.8557C115.699 44.2174 115.509 44.6424 115.383 45.1307C115.274 45.6009 115.22 46.0982 115.22 46.6227C115.22 47.1291 115.265 47.6354 115.356 48.1418C115.464 48.6301 115.636 49.0732 115.871 49.4711C116.124 49.8689 116.45 50.1945 116.848 50.4476C117.245 50.7008 117.743 50.8274 118.34 50.8274ZM125.284 53.2418C125.284 53.8024 125.203 54.4444 125.04 55.1678C124.895 55.8912 124.57 56.5603 124.063 57.1752C123.557 57.8082 122.825 58.3417 121.866 58.7757C120.908 59.2098 119.624 59.4268 118.014 59.4268C117.327 59.4268 116.622 59.3364 115.898 59.1555C115.193 58.9928 114.542 58.7305 113.945 58.3688C113.366 58.0071 112.878 57.5369 112.48 56.9582C112.1 56.3976 111.883 55.7194 111.829 54.9237H115.654C115.835 55.6471 116.187 56.1444 116.712 56.4157C117.236 56.705 117.842 56.8497 118.529 56.8497C119.615 56.8497 120.401 56.5242 120.89 55.8731C121.396 55.2221 121.64 54.3992 121.622 53.4045V51.5599H121.568C121.152 52.3013 120.555 52.8529 119.777 53.2146C119.018 53.5582 118.213 53.7301 117.363 53.7301C116.314 53.7301 115.41 53.5492 114.65 53.1875C113.891 52.8077 113.267 52.3013 112.778 51.6684C112.29 51.0173 111.928 50.2668 111.693 49.4168C111.476 48.5487 111.368 47.6354 111.368 46.6769C111.368 45.7727 111.494 44.9046 111.748 44.0727C112.019 43.2227 112.408 42.4813 112.914 41.8483C113.421 41.1972 114.044 40.6818 114.786 40.302C115.545 39.9222 116.414 39.7323 117.39 39.7323C118.312 39.7323 119.117 39.9042 119.804 40.2478C120.51 40.5914 121.098 41.1701 121.568 41.9839H121.622V40.1121H125.284V53.2418Z" fill="#A9518B"/>
<path d="M128.114 34.7678H132.373V42.2007H140.213V34.7678H144.472V54.1367H140.213V45.7815H132.373V54.1367H128.114V34.7678ZM157.092 45.6187C156.911 44.6422 156.585 43.9007 156.115 43.3943C155.663 42.8879 154.967 42.6347 154.026 42.6347C153.411 42.6347 152.896 42.7432 152.48 42.9603C152.082 43.1592 151.757 43.4124 151.504 43.7198C151.268 44.0273 151.097 44.3528 150.988 44.6964C150.898 45.04 150.843 45.3475 150.825 45.6187H157.092ZM150.825 48.0602C150.88 49.3081 151.196 50.2123 151.775 50.7729C152.354 51.3336 153.185 51.6139 154.271 51.6139C155.048 51.6139 155.717 51.424 156.278 51.0442C156.839 50.6463 157.182 50.2304 157.309 49.7963H160.7C160.157 51.4782 159.325 52.6809 158.204 53.4043C157.083 54.1277 155.726 54.4894 154.135 54.4894C153.032 54.4894 152.037 54.3176 151.151 53.974C150.265 53.6123 149.514 53.1059 148.899 52.4548C148.284 51.8038 147.805 51.0261 147.462 50.1219C147.136 49.2176 146.973 48.223 146.973 47.1379C146.973 46.0889 147.145 45.1124 147.489 44.2081C147.832 43.3039 148.321 42.5262 148.954 41.8752C149.587 41.206 150.337 40.6816 151.205 40.3018C152.091 39.922 153.068 39.7321 154.135 39.7321C155.328 39.7321 156.368 39.9672 157.255 40.4374C158.141 40.8895 158.864 41.5044 159.425 42.2821C160.003 43.0597 160.419 43.9459 160.673 44.9406C160.926 45.9352 161.016 46.9751 160.944 48.0602H150.825ZM162.903 44.4251C162.957 43.5209 163.183 42.7704 163.581 42.1736C163.979 41.5768 164.485 41.0975 165.1 40.7358C165.715 40.3741 166.402 40.1209 167.162 39.9763C167.94 39.8135 168.717 39.7321 169.495 39.7321C170.2 39.7321 170.915 39.7864 171.638 39.8949C172.361 39.9853 173.021 40.1752 173.618 40.4645C174.215 40.7539 174.703 41.1608 175.083 41.6853C175.463 42.1917 175.653 42.8698 175.653 43.7198V51.0171C175.653 51.65 175.689 52.2559 175.761 52.8346C175.834 53.4133 175.96 53.8474 176.141 54.1367H172.235C172.162 53.9197 172.099 53.7027 172.045 53.4857C172.009 53.2506 171.982 53.0155 171.963 52.7804C171.349 53.4133 170.625 53.8564 169.793 54.1096C168.961 54.3628 168.111 54.4894 167.243 54.4894C166.574 54.4894 165.95 54.408 165.372 54.2452C164.793 54.0825 164.286 53.8293 163.852 53.4857C163.418 53.142 163.075 52.708 162.822 52.1836C162.586 51.6591 162.469 51.0352 162.469 50.3118C162.469 49.516 162.605 48.865 162.876 48.3586C163.165 47.8341 163.527 47.4182 163.961 47.1107C164.413 46.8033 164.919 46.5772 165.48 46.4326C166.059 46.2698 166.637 46.1432 167.216 46.0528C167.795 45.9623 168.365 45.89 168.925 45.8358C169.486 45.7815 169.983 45.7001 170.417 45.5916C170.851 45.4831 171.195 45.3294 171.448 45.1304C171.701 44.9134 171.819 44.606 171.801 44.2081C171.801 43.7922 171.728 43.4666 171.584 43.2315C171.457 42.9783 171.276 42.7885 171.041 42.6619C170.824 42.5172 170.562 42.4268 170.254 42.3906C169.965 42.3363 169.649 42.3092 169.305 42.3092C168.545 42.3092 167.949 42.472 167.515 42.7975C167.081 43.123 166.827 43.6656 166.755 44.4251H162.903ZM171.801 47.2735C171.638 47.4182 171.43 47.5357 171.177 47.6262C170.942 47.6985 170.679 47.7618 170.39 47.8161C170.119 47.8703 169.829 47.9155 169.522 47.9517C169.215 47.9879 168.907 48.0331 168.6 48.0873C168.31 48.1416 168.021 48.2139 167.732 48.3043C167.46 48.3948 167.216 48.5214 166.999 48.6841C166.8 48.8288 166.637 49.0187 166.511 49.2538C166.384 49.4889 166.321 49.7873 166.321 50.149C166.321 50.4926 166.384 50.782 166.511 51.0171C166.637 51.2522 166.809 51.4421 167.026 51.5867C167.243 51.7133 167.496 51.8038 167.786 51.858C168.075 51.9123 168.374 51.9394 168.681 51.9394C169.441 51.9394 170.028 51.8128 170.444 51.5596C170.86 51.3064 171.168 51.008 171.367 50.6644C171.566 50.3027 171.683 49.941 171.719 49.5793C171.774 49.2176 171.801 48.9283 171.801 48.7113V47.2735ZM178.588 34.7678H182.441V54.1367H178.588V34.7678ZM190.194 40.1119H193.015V42.689H190.194V49.6336C190.194 50.2846 190.302 50.7187 190.519 50.9357C190.736 51.1527 191.17 51.2612 191.822 51.2612C192.039 51.2612 192.247 51.2522 192.445 51.2341C192.644 51.216 192.834 51.1889 193.015 51.1527V54.1367C192.69 54.191 192.328 54.2271 191.93 54.2452C191.532 54.2633 191.143 54.2724 190.764 54.2724C190.167 54.2724 189.597 54.2271 189.055 54.1367C188.53 54.0644 188.06 53.9107 187.644 53.6756C187.246 53.4405 186.93 53.1059 186.694 52.6718C186.459 52.2378 186.342 51.6681 186.342 50.9628V42.689H184.009V40.1119H186.342V35.9072H190.194V40.1119ZM194.685 34.7678H198.537V42.0651H198.619C199.107 41.2512 199.731 40.6635 200.49 40.3018C201.25 39.922 201.991 39.7321 202.715 39.7321C203.746 39.7321 204.587 39.8768 205.238 40.1661C205.907 40.4374 206.431 40.8262 206.811 41.3326C207.191 41.8209 207.453 42.4268 207.598 43.1501C207.761 43.8555 207.842 44.6422 207.842 45.5102V54.1367H203.99V46.2155C203.99 45.0581 203.809 44.1991 203.447 43.6384C203.086 43.0597 202.444 42.7704 201.521 42.7704C200.472 42.7704 199.713 43.0869 199.243 43.7198C198.772 44.3347 198.537 45.3565 198.537 46.7852V54.1367H194.685V34.7678Z" fill="#A13332"/>
<path d="M110.781 61.495H112.88L114.465 66.1569H114.484L115.984 61.495H118.083V68.2742H116.687V63.4699H116.668L115.006 68.2742H113.858L112.196 63.5174H112.177V68.2742H110.781V61.495ZM119.253 64.8751C119.272 64.5586 119.351 64.2959 119.49 64.0871C119.629 63.8782 119.806 63.7104 120.022 63.5839C120.237 63.4573 120.477 63.3686 120.743 63.318C121.015 63.261 121.288 63.2326 121.56 63.2326C121.807 63.2326 122.057 63.2515 122.31 63.2895C122.563 63.3212 122.794 63.3876 123.003 63.4889C123.212 63.5902 123.383 63.7326 123.516 63.9162C123.649 64.0934 123.715 64.3308 123.715 64.6283V67.1823C123.715 67.4038 123.728 67.6159 123.753 67.8184C123.778 68.021 123.823 68.1729 123.886 68.2742H122.519C122.493 68.1982 122.471 68.1223 122.452 68.0463C122.44 67.964 122.43 67.8817 122.424 67.7994C122.209 68.021 121.955 68.1761 121.664 68.2647C121.373 68.3533 121.076 68.3976 120.772 68.3976C120.538 68.3976 120.319 68.3691 120.117 68.3121C119.914 68.2552 119.737 68.1666 119.585 68.0463C119.433 67.926 119.313 67.7741 119.224 67.5906C119.142 67.407 119.101 67.1886 119.101 66.9354C119.101 66.6569 119.148 66.4291 119.243 66.2518C119.344 66.0683 119.471 65.9227 119.623 65.8151C119.781 65.7075 119.958 65.6284 120.155 65.5777C120.357 65.5207 120.56 65.4764 120.762 65.4448C120.965 65.4131 121.164 65.3878 121.36 65.3688C121.557 65.3498 121.731 65.3214 121.883 65.2834C122.035 65.2454 122.155 65.1916 122.243 65.122C122.332 65.046 122.373 64.9384 122.367 64.7992C122.367 64.6536 122.342 64.5396 122.291 64.4574C122.247 64.3687 122.183 64.3023 122.101 64.258C122.025 64.2073 121.933 64.1757 121.826 64.163C121.724 64.144 121.614 64.1345 121.493 64.1345C121.227 64.1345 121.019 64.1915 120.867 64.3054C120.715 64.4194 120.626 64.6093 120.601 64.8751H119.253ZM122.367 65.872C122.31 65.9227 122.237 65.9638 122.148 65.9955C122.066 66.0208 121.974 66.0429 121.873 66.0619C121.778 66.0809 121.677 66.0967 121.569 66.1094C121.462 66.1221 121.354 66.1379 121.246 66.1569C121.145 66.1759 121.044 66.2012 120.943 66.2328C120.848 66.2645 120.762 66.3088 120.686 66.3658C120.617 66.4164 120.56 66.4829 120.515 66.5651C120.471 66.6474 120.449 66.7519 120.449 66.8785C120.449 66.9987 120.471 67.1 120.515 67.1823C120.56 67.2646 120.62 67.331 120.696 67.3817C120.772 67.426 120.86 67.4576 120.962 67.4766C121.063 67.4956 121.167 67.5051 121.275 67.5051C121.541 67.5051 121.747 67.4608 121.892 67.3722C122.038 67.2836 122.145 67.1791 122.215 67.0589C122.285 66.9323 122.326 66.8057 122.338 66.6791C122.357 66.5525 122.367 66.4512 122.367 66.3753V65.872ZM124.819 63.3655H126.1V64.0491H126.129C126.3 63.7643 126.521 63.5585 126.793 63.4319C127.066 63.299 127.344 63.2326 127.629 63.2326C127.99 63.2326 128.284 63.2832 128.512 63.3845C128.746 63.4794 128.93 63.6155 129.063 63.7927C129.196 63.9636 129.287 64.1757 129.338 64.4289C129.395 64.6757 129.423 64.9511 129.423 65.2549V68.2742H128.075V65.5018C128.075 65.0967 128.012 64.796 127.885 64.5998C127.759 64.3972 127.534 64.2959 127.211 64.2959C126.844 64.2959 126.578 64.4067 126.414 64.6283C126.249 64.8435 126.167 65.2011 126.167 65.7011V68.2742H124.819V63.3655ZM130.447 64.8751C130.466 64.5586 130.545 64.2959 130.684 64.0871C130.823 63.8782 131 63.7104 131.216 63.5839C131.431 63.4573 131.671 63.3686 131.937 63.318C132.209 63.261 132.482 63.2326 132.754 63.2326C133.001 63.2326 133.251 63.2515 133.504 63.2895C133.757 63.3212 133.988 63.3876 134.197 63.4889C134.406 63.5902 134.577 63.7326 134.71 63.9162C134.843 64.0934 134.909 64.3308 134.909 64.6283V67.1823C134.909 67.4038 134.922 67.6159 134.947 67.8184C134.972 68.021 135.017 68.1729 135.08 68.2742H133.713C133.687 68.1982 133.665 68.1223 133.646 68.0463C133.634 67.964 133.624 67.8817 133.618 67.7994C133.403 68.021 133.149 68.1761 132.858 68.2647C132.567 68.3533 132.27 68.3976 131.966 68.3976C131.732 68.3976 131.513 68.3691 131.311 68.3121C131.108 68.2552 130.931 68.1666 130.779 68.0463C130.627 67.926 130.507 67.7741 130.418 67.5906C130.336 67.407 130.295 67.1886 130.295 66.9354C130.295 66.6569 130.342 66.4291 130.437 66.2518C130.538 66.0683 130.665 65.9227 130.817 65.8151C130.975 65.7075 131.152 65.6284 131.349 65.5777C131.551 65.5207 131.754 65.4764 131.956 65.4448C132.159 65.4131 132.358 65.3878 132.554 65.3688C132.751 65.3498 132.925 65.3214 133.077 65.2834C133.229 65.2454 133.349 65.1916 133.437 65.122C133.526 65.046 133.567 64.9384 133.561 64.7992C133.561 64.6536 133.536 64.5396 133.485 64.4574C133.441 64.3687 133.377 64.3023 133.295 64.258C133.219 64.2073 133.127 64.1757 133.02 64.163C132.918 64.144 132.808 64.1345 132.687 64.1345C132.422 64.1345 132.213 64.1915 132.061 64.3054C131.909 64.4194 131.82 64.6093 131.795 64.8751H130.447ZM133.561 65.872C133.504 65.9227 133.431 65.9638 133.342 65.9955C133.26 66.0208 133.168 66.0429 133.067 66.0619C132.972 66.0809 132.871 66.0967 132.763 66.1094C132.656 66.1221 132.548 66.1379 132.44 66.1569C132.339 66.1759 132.238 66.2012 132.137 66.2328C132.042 66.2645 131.956 66.3088 131.88 66.3658C131.811 66.4164 131.754 66.4829 131.709 66.5651C131.665 66.6474 131.643 66.7519 131.643 66.8785C131.643 66.9987 131.665 67.1 131.709 67.1823C131.754 67.2646 131.814 67.331 131.89 67.3817C131.966 67.426 132.054 67.4576 132.156 67.4766C132.257 67.4956 132.361 67.5051 132.469 67.5051C132.735 67.5051 132.941 67.4608 133.086 67.3722C133.232 67.2836 133.339 67.1791 133.409 67.0589C133.479 66.9323 133.52 66.8057 133.532 66.6791C133.551 66.5525 133.561 66.4512 133.561 66.3753V65.872ZM138.301 67.1158C138.491 67.1158 138.658 67.0779 138.804 67.0019C138.95 66.9259 139.07 66.8247 139.165 66.6981C139.26 66.5715 139.329 66.4291 139.374 66.2708C139.424 66.1062 139.45 65.9353 139.45 65.7581C139.45 65.5556 139.431 65.3657 139.393 65.1884C139.355 65.0049 139.291 64.8435 139.203 64.7042C139.114 64.565 138.997 64.4542 138.851 64.3719C138.706 64.2896 138.522 64.2485 138.301 64.2485C138.111 64.2485 137.946 64.2865 137.807 64.3624C137.674 64.4384 137.56 64.5428 137.465 64.6757C137.377 64.8023 137.31 64.9511 137.266 65.122C137.228 65.2865 137.209 65.4606 137.209 65.6442C137.209 65.8214 137.225 65.9986 137.256 66.1759C137.294 66.3468 137.354 66.5019 137.437 66.6411C137.525 66.7804 137.639 66.8943 137.779 66.9829C137.918 67.0715 138.092 67.1158 138.301 67.1158ZM140.731 67.9608C140.731 68.1571 140.703 68.3818 140.646 68.635C140.595 68.8882 140.481 69.1224 140.304 69.3376C140.127 69.5591 139.87 69.7458 139.535 69.8977C139.2 70.0497 138.75 70.1256 138.187 70.1256C137.946 70.1256 137.699 70.094 137.446 70.0307C137.199 69.9737 136.971 69.8819 136.763 69.7553C136.56 69.6287 136.389 69.4642 136.25 69.2616C136.117 69.0654 136.041 68.828 136.022 68.5495H137.361C137.424 68.8027 137.547 68.9768 137.731 69.0717C137.915 69.173 138.127 69.2236 138.367 69.2236C138.747 69.2236 139.022 69.1097 139.193 68.8818C139.37 68.654 139.456 68.366 139.45 68.0178V67.3722H139.431C139.285 67.6317 139.076 67.8248 138.804 67.9514C138.538 68.0716 138.256 68.1318 137.959 68.1318C137.592 68.1318 137.275 68.0685 137.009 67.9419C136.744 67.8089 136.525 67.6317 136.354 67.4102C136.183 67.1823 136.057 66.9196 135.975 66.6221C135.899 66.3183 135.861 65.9986 135.861 65.6632C135.861 65.3467 135.905 65.0429 135.994 64.7517C136.088 64.4542 136.225 64.1947 136.402 63.9731C136.579 63.7453 136.797 63.5649 137.057 63.4319C137.323 63.299 137.627 63.2326 137.968 63.2326C138.291 63.2326 138.573 63.2927 138.813 63.413C139.06 63.5332 139.266 63.7358 139.431 64.0206H139.45V63.3655H140.731V67.9608ZM145.178 65.2929C145.115 64.9511 145.001 64.6916 144.836 64.5143C144.678 64.3371 144.434 64.2485 144.105 64.2485C143.89 64.2485 143.709 64.2865 143.564 64.3624C143.425 64.432 143.311 64.5207 143.222 64.6283C143.14 64.7359 143.08 64.8498 143.042 64.9701C143.01 65.0903 142.991 65.1979 142.985 65.2929H145.178ZM142.985 66.1474C143.004 66.5841 143.114 66.9006 143.317 67.0968C143.52 67.2931 143.811 67.3912 144.19 67.3912C144.463 67.3912 144.697 67.3247 144.893 67.1918C145.089 67.0525 145.21 66.907 145.254 66.755H146.441C146.251 67.3437 145.96 67.7646 145.567 68.0178C145.175 68.271 144.7 68.3976 144.143 68.3976C143.757 68.3976 143.409 68.3375 143.099 68.2172C142.788 68.0906 142.526 67.9134 142.311 67.6855C142.095 67.4576 141.928 67.1855 141.807 66.869C141.693 66.5525 141.636 66.2044 141.636 65.8246C141.636 65.4574 141.697 65.1156 141.817 64.7992C141.937 64.4827 142.108 64.2105 142.33 63.9826C142.551 63.7484 142.814 63.5649 143.118 63.4319C143.428 63.299 143.77 63.2326 144.143 63.2326C144.561 63.2326 144.925 63.3148 145.235 63.4794C145.545 63.6377 145.798 63.8529 145.994 64.125C146.197 64.3972 146.343 64.7074 146.431 65.0555C146.52 65.4036 146.551 65.7676 146.526 66.1474H142.985ZM147.421 63.3655H148.693V64.0301H148.712C148.889 63.7769 149.101 63.5807 149.348 63.4414C149.601 63.3022 149.889 63.2326 150.212 63.2326C150.522 63.2326 150.804 63.2927 151.057 63.413C151.317 63.5332 151.513 63.7453 151.646 64.0491C151.791 63.8339 151.988 63.644 152.234 63.4794C152.488 63.3148 152.785 63.2326 153.127 63.2326C153.386 63.2326 153.627 63.2642 153.849 63.3275C154.07 63.3908 154.26 63.4921 154.418 63.6313C154.576 63.7706 154.7 63.9541 154.788 64.182C154.877 64.4036 154.921 64.6726 154.921 64.989V68.2742H153.573V65.4923C153.573 65.3277 153.567 65.1726 153.554 65.027C153.542 64.8814 153.507 64.7549 153.45 64.6472C153.393 64.5396 153.307 64.4542 153.193 64.3909C153.086 64.3276 152.937 64.2959 152.747 64.2959C152.557 64.2959 152.402 64.3339 152.282 64.4099C152.168 64.4795 152.076 64.5745 152.007 64.6947C151.943 64.8087 151.899 64.9416 151.874 65.0935C151.855 65.2391 151.845 65.3878 151.845 65.5397V68.2742H150.497V65.5207C150.497 65.3752 150.494 65.2327 150.487 65.0935C150.481 64.9479 150.453 64.815 150.402 64.6947C150.358 64.5745 150.279 64.4795 150.165 64.4099C150.057 64.3339 149.896 64.2959 149.68 64.2959C149.617 64.2959 149.532 64.3118 149.424 64.3434C149.323 64.3687 149.221 64.4225 149.12 64.5048C149.025 64.5808 148.943 64.6947 148.873 64.8466C148.804 64.9922 148.769 65.1853 148.769 65.4258V68.2742H147.421V63.3655ZM159.348 65.2929C159.285 64.9511 159.171 64.6916 159.006 64.5143C158.848 64.3371 158.605 64.2485 158.275 64.2485C158.06 64.2485 157.88 64.2865 157.734 64.3624C157.595 64.432 157.481 64.5207 157.392 64.6283C157.31 64.7359 157.25 64.8498 157.212 64.9701C157.18 65.0903 157.161 65.1979 157.155 65.2929H159.348ZM157.155 66.1474C157.174 66.5841 157.285 66.9006 157.487 67.0968C157.69 67.2931 157.981 67.3912 158.361 67.3912C158.633 67.3912 158.867 67.3247 159.063 67.1918C159.26 67.0525 159.38 66.907 159.424 66.755H160.611C160.421 67.3437 160.13 67.7646 159.738 68.0178C159.345 68.271 158.87 68.3976 158.313 68.3976C157.927 68.3976 157.579 68.3375 157.269 68.2172C156.959 68.0906 156.696 67.9134 156.481 67.6855C156.266 67.4576 156.098 67.1855 155.978 66.869C155.864 66.5525 155.807 66.2044 155.807 65.8246C155.807 65.4574 155.867 65.1156 155.987 64.7992C156.107 64.4827 156.278 64.2105 156.5 63.9826C156.721 63.7484 156.984 63.5649 157.288 63.4319C157.598 63.299 157.94 63.2326 158.313 63.2326C158.731 63.2326 159.095 63.3148 159.405 63.4794C159.715 63.6377 159.969 63.8529 160.165 64.125C160.367 64.3972 160.513 64.7074 160.602 65.0555C160.69 65.4036 160.722 65.7676 160.696 66.1474H157.155ZM161.553 63.3655H162.835V64.0491H162.863C163.034 63.7643 163.256 63.5585 163.528 63.4319C163.8 63.299 164.079 63.2326 164.363 63.2326C164.724 63.2326 165.019 63.2832 165.246 63.3845C165.481 63.4794 165.664 63.6155 165.797 63.7927C165.93 63.9636 166.022 64.1757 166.072 64.4289C166.129 64.6757 166.158 64.9511 166.158 65.2549V68.2742H164.81V65.5018C164.81 65.0967 164.746 64.796 164.62 64.5998C164.493 64.3972 164.269 64.2959 163.946 64.2959C163.579 64.2959 163.313 64.4067 163.148 64.6283C162.984 64.8435 162.901 65.2011 162.901 65.7011V68.2742H161.553V63.3655ZM168.947 63.3655H169.935V64.2675H168.947V66.6981C168.947 66.9259 168.985 67.0779 169.061 67.1538C169.137 67.2298 169.289 67.2677 169.517 67.2677C169.593 67.2677 169.666 67.2646 169.735 67.2583C169.805 67.2519 169.871 67.2424 169.935 67.2298V68.2742C169.821 68.2932 169.694 68.3058 169.555 68.3121C169.416 68.3185 169.279 68.3216 169.147 68.3216C168.938 68.3216 168.738 68.3058 168.548 68.2742C168.365 68.2489 168.2 68.195 168.055 68.1128C167.915 68.0305 167.805 67.9134 167.722 67.7615C167.64 67.6096 167.599 67.4102 167.599 67.1633V64.2675H166.782V63.3655H167.599V61.8938H168.947V63.3655Z" fill="#A9518B"/>
<path d="M172.559 61.495H174.05V67.0209H177.354V68.2742H172.559V61.495ZM179.488 62.6059H178.14V61.495H179.488V62.6059ZM178.14 63.3655H179.488V68.2742H178.14V63.3655ZM180.645 63.3655H181.917V64.0301H181.936C182.113 63.7769 182.325 63.5807 182.572 63.4414C182.825 63.3022 183.113 63.2326 183.436 63.2326C183.746 63.2326 184.028 63.2927 184.281 63.413C184.541 63.5332 184.737 63.7453 184.87 64.0491C185.016 63.8339 185.212 63.644 185.459 63.4794C185.712 63.3148 186.009 63.2326 186.351 63.2326C186.611 63.2326 186.851 63.2642 187.073 63.3275C187.294 63.3908 187.484 63.4921 187.642 63.6313C187.801 63.7706 187.924 63.9541 188.013 64.182C188.101 64.4036 188.146 64.6726 188.146 64.989V68.2742H186.797V65.4923C186.797 65.3277 186.791 65.1726 186.778 65.027C186.766 64.8814 186.731 64.7549 186.674 64.6472C186.617 64.5396 186.531 64.4542 186.418 64.3909C186.31 64.3276 186.161 64.2959 185.971 64.2959C185.781 64.2959 185.626 64.3339 185.506 64.4099C185.392 64.4795 185.3 64.5745 185.231 64.6947C185.167 64.8087 185.123 64.9416 185.098 65.0935C185.079 65.2391 185.069 65.3878 185.069 65.5397V68.2742H183.721V65.5207C183.721 65.3752 183.718 65.2327 183.712 65.0935C183.705 64.9479 183.677 64.815 183.626 64.6947C183.582 64.5745 183.503 64.4795 183.389 64.4099C183.281 64.3339 183.12 64.2959 182.905 64.2959C182.841 64.2959 182.756 64.3118 182.648 64.3434C182.547 64.3687 182.446 64.4225 182.344 64.5048C182.249 64.5808 182.167 64.6947 182.098 64.8466C182.028 64.9922 181.993 65.1853 181.993 65.4258V68.2742H180.645V63.3655ZM190.655 62.6059H189.306V61.495H190.655V62.6059ZM189.306 63.3655H190.655V68.2742H189.306V63.3655ZM193.482 63.3655H194.47V64.2675H193.482V66.6981C193.482 66.9259 193.52 67.0779 193.596 67.1538C193.672 67.2298 193.824 67.2677 194.052 67.2677C194.128 67.2677 194.201 67.2646 194.27 67.2583C194.34 67.2519 194.406 67.2424 194.47 67.2298V68.2742C194.356 68.2932 194.229 68.3058 194.09 68.3121C193.951 68.3185 193.814 68.3216 193.681 68.3216C193.473 68.3216 193.273 68.3058 193.083 68.2742C192.9 68.2489 192.735 68.195 192.59 68.1128C192.45 68.0305 192.34 67.9134 192.257 67.7615C192.175 67.6096 192.134 67.4102 192.134 67.1633V64.2675H191.317V63.3655H192.134V61.8938H193.482V63.3655ZM198.472 65.2929C198.409 64.9511 198.295 64.6916 198.13 64.5143C197.972 64.3371 197.728 64.2485 197.399 64.2485C197.184 64.2485 197.004 64.2865 196.858 64.3624C196.719 64.432 196.605 64.5207 196.516 64.6283C196.434 64.7359 196.374 64.8498 196.336 64.9701C196.304 65.0903 196.285 65.1979 196.279 65.2929H198.472ZM196.279 66.1474C196.298 66.5841 196.409 66.9006 196.611 67.0968C196.814 67.2931 197.105 67.3912 197.485 67.3912C197.757 67.3912 197.991 67.3247 198.187 67.1918C198.383 67.0525 198.504 66.907 198.548 66.755H199.735C199.545 67.3437 199.254 67.7646 198.861 68.0178C198.469 68.271 197.994 68.3976 197.437 68.3976C197.051 68.3976 196.703 68.3375 196.393 68.2172C196.083 68.0906 195.82 67.9134 195.605 67.6855C195.39 67.4576 195.222 67.1855 195.102 66.869C194.988 66.5525 194.931 66.2044 194.931 65.8246C194.931 65.4574 194.991 65.1156 195.111 64.7992C195.231 64.4827 195.402 64.2105 195.624 63.9826C195.845 63.7484 196.108 63.5649 196.412 63.4319C196.722 63.299 197.064 63.2326 197.437 63.2326C197.855 63.2326 198.219 63.3148 198.529 63.4794C198.839 63.6377 199.092 63.8529 199.289 64.125C199.491 64.3972 199.637 64.7074 199.725 65.0555C199.814 65.4036 199.846 65.7676 199.82 66.1474H196.279ZM204.161 65.8056C204.161 65.603 204.142 65.41 204.104 65.2264C204.066 65.0365 204 64.872 203.905 64.7327C203.816 64.5871 203.699 64.47 203.554 64.3814C203.408 64.2928 203.225 64.2485 203.003 64.2485C202.782 64.2485 202.595 64.2928 202.443 64.3814C202.291 64.47 202.168 64.5871 202.073 64.7327C201.984 64.8783 201.918 65.046 201.873 65.2359C201.835 65.4195 201.816 65.6125 201.816 65.8151C201.816 66.005 201.838 66.1949 201.883 66.3848C201.927 66.5746 201.997 66.7455 202.092 66.8975C202.193 67.043 202.316 67.1633 202.462 67.2583C202.614 67.3469 202.794 67.3912 203.003 67.3912C203.225 67.3912 203.408 67.3469 203.554 67.2583C203.706 67.1696 203.826 67.0525 203.915 66.907C204.003 66.755 204.066 66.5841 204.104 66.3942C204.142 66.2044 204.161 66.0081 204.161 65.8056ZM204.18 67.6475H204.161C204.003 67.9134 203.794 68.1064 203.535 68.2267C203.282 68.3406 202.994 68.3976 202.671 68.3976C202.304 68.3976 201.981 68.328 201.702 68.1887C201.424 68.0431 201.193 67.8501 201.009 67.6096C200.832 67.3627 200.696 67.081 200.601 66.7645C200.512 66.448 200.468 66.1189 200.468 65.7771C200.468 65.448 200.512 65.1315 200.601 64.8276C200.696 64.5175 200.832 64.2453 201.009 64.0111C201.193 63.7769 201.421 63.5902 201.693 63.4509C201.965 63.3053 202.281 63.2326 202.642 63.2326C202.933 63.2326 203.209 63.2959 203.468 63.4224C203.734 63.5427 203.943 63.7231 204.095 63.9636H204.114V61.495H205.462V68.2742H204.18V67.6475Z" fill="#A9518B"/>
<path d="M182.648 0.000244141H193.285C199.278 0.000244141 204.136 4.85837 204.136 10.8512V28.7674H182.648V0.000244141Z" fill="#A9518B"/>
<path d="M182.648 100.001H193.286C199.278 100.001 204.136 95.1425 204.136 89.1497V71.2335H182.648V100.001Z" fill="#A13332"/>
<path d="M212.406 35.6167H224.163C230.787 35.6167 236.156 40.9862 236.156 47.6098V52.3907C236.156 59.0143 230.787 64.3838 224.163 64.3838H212.406V35.6167Z" fill="#A13332"/>
</svg>
