<svg width="155" height="64" viewBox="0 0 155 64" fill="none" xmlns="http://www.w3.org/2000/svg">
<path d="M10.2575 33.8673C9.76658 34.4986 9.22301 34.9428 8.62685 35.1999C8.03069 35.4454 7.42868 35.5681 6.82082 35.5681C5.86228 35.5681 4.99726 35.4045 4.22575 35.0772C3.46594 34.7382 2.82301 34.2765 2.29699 33.692C1.77096 33.1075 1.36767 32.4237 1.08712 31.6405C0.806575 30.8456 0.666301 29.9923 0.666301 29.0805C0.666301 28.1453 0.806575 27.2803 1.08712 26.4854C1.36767 25.6788 1.77096 24.9775 2.29699 24.3813C2.82301 23.7851 3.46594 23.3176 4.22575 22.9786C4.99726 22.6396 5.86228 22.4701 6.82082 22.4701C7.46374 22.4701 8.08329 22.5694 8.67945 22.7681C9.28731 22.9552 9.83087 23.2357 10.3101 23.6098C10.8011 23.9839 11.2044 24.4456 11.52 24.995C11.8356 25.5444 12.0285 26.1756 12.0986 26.8887H9.46849C9.30484 26.1873 8.98922 25.6613 8.52164 25.3106C8.05406 24.9599 7.48712 24.7846 6.82082 24.7846C6.20128 24.7846 5.67525 24.9073 5.24274 25.1528C4.81023 25.3866 4.45954 25.7081 4.19069 26.1172C3.92183 26.5146 3.72311 26.9705 3.59452 27.4849C3.47763 27.9992 3.41918 28.5311 3.41918 29.0805C3.41918 29.6065 3.47763 30.1208 3.59452 30.6235C3.72311 31.1144 3.92183 31.5586 4.19069 31.9561C4.45954 32.3535 4.81023 32.675 5.24274 32.9205C5.67525 33.1543 6.20128 33.2712 6.82082 33.2712C7.7326 33.2712 8.43397 33.0432 8.92493 32.5873C9.42758 32.1197 9.71982 31.4476 9.80164 30.5709H7.03123V28.5194H12.2915V35.2876H10.5381L10.2575 33.8673ZM14.1464 26.2224H16.5136V27.9057H16.5486C16.6655 27.6251 16.8233 27.368 17.0221 27.1342C17.2208 26.8887 17.4487 26.6841 17.7059 26.5205C17.9631 26.3451 18.2378 26.2107 18.53 26.1172C18.8222 26.0237 19.1262 25.9769 19.4418 25.9769C19.6054 25.9769 19.7866 26.0061 19.9853 26.0646V28.3791C19.8684 28.3557 19.7282 28.3382 19.5645 28.3265C19.4009 28.3031 19.2431 28.2914 19.0911 28.2914C18.6352 28.2914 18.2495 28.3674 17.9338 28.5194C17.6182 28.6713 17.3611 28.8818 17.1623 29.1506C16.9753 29.4078 16.8409 29.7117 16.759 30.0624C16.6772 30.4131 16.6363 30.793 16.6363 31.2021V35.2876H14.1464V26.2224ZM22.7574 30.7638C22.7574 31.1261 22.7925 31.4827 22.8626 31.8334C22.9327 32.1723 23.0496 32.4821 23.2133 32.7627C23.3886 33.0315 23.6166 33.2478 23.8971 33.4114C24.1777 33.5751 24.5284 33.6569 24.9492 33.6569C25.37 33.6569 25.7207 33.5751 26.0012 33.4114C26.2935 33.2478 26.5214 33.0315 26.6851 32.7627C26.8604 32.4821 26.9832 32.1723 27.0533 31.8334C27.1234 31.4827 27.1585 31.1261 27.1585 30.7638C27.1585 30.4014 27.1234 30.0449 27.0533 29.6942C26.9832 29.3435 26.8604 29.0337 26.6851 28.7649C26.5214 28.496 26.2935 28.2797 26.0012 28.1161C25.7207 27.9407 25.37 27.8531 24.9492 27.8531C24.5284 27.8531 24.1777 27.9407 23.8971 28.1161C23.6166 28.2797 23.3886 28.496 23.2133 28.7649C23.0496 29.0337 22.9327 29.3435 22.8626 29.6942C22.7925 30.0449 22.7574 30.4014 22.7574 30.7638ZM20.2675 30.7638C20.2675 30.039 20.3786 29.3844 20.6007 28.7999C20.8228 28.2038 21.1384 27.7011 21.5475 27.292C21.9567 26.8712 22.4476 26.5497 23.0204 26.3276C23.5932 26.0938 24.2361 25.9769 24.9492 25.9769C25.6622 25.9769 26.3052 26.0938 26.8779 26.3276C27.4624 26.5497 27.9592 26.8712 28.3684 27.292C28.7775 27.7011 29.0931 28.2038 29.3152 28.7999C29.5373 29.3844 29.6484 30.039 29.6484 30.7638C29.6484 31.4885 29.5373 32.1431 29.3152 32.7276C29.0931 33.3121 28.7775 33.8147 28.3684 34.2355C27.9592 34.6447 27.4624 34.9603 26.8779 35.1824C26.3052 35.4045 25.6622 35.5155 24.9492 35.5155C24.2361 35.5155 23.5932 35.4045 23.0204 35.1824C22.4476 34.9603 21.9567 34.6447 21.5475 34.2355C21.1384 33.8147 20.8228 33.3121 20.6007 32.7276C20.3786 32.1431 20.2675 31.4885 20.2675 30.7638ZM33.3714 30.7638C33.3714 31.1261 33.4064 31.4827 33.4766 31.8334C33.5467 32.1723 33.6636 32.4821 33.8273 32.7627C34.0026 33.0315 34.2305 33.2478 34.5111 33.4114C34.7916 33.5751 35.1423 33.6569 35.5632 33.6569C35.984 33.6569 36.3347 33.5751 36.6152 33.4114C36.9074 33.2478 37.1354 33.0315 37.299 32.7627C37.4744 32.4821 37.5971 32.1723 37.6673 31.8334C37.7374 31.4827 37.7725 31.1261 37.7725 30.7638C37.7725 30.4014 37.7374 30.0449 37.6673 29.6942C37.5971 29.3435 37.4744 29.0337 37.299 28.7649C37.1354 28.496 36.9074 28.2797 36.6152 28.1161C36.3347 27.9407 35.984 27.8531 35.5632 27.8531C35.1423 27.8531 34.7916 27.9407 34.5111 28.1161C34.2305 28.2797 34.0026 28.496 33.8273 28.7649C33.6636 29.0337 33.5467 29.3435 33.4766 29.6942C33.4064 30.0449 33.3714 30.4014 33.3714 30.7638ZM30.8815 30.7638C30.8815 30.039 30.9926 29.3844 31.2147 28.7999C31.4368 28.2038 31.7524 27.7011 32.1615 27.292C32.5706 26.8712 33.0616 26.5497 33.6344 26.3276C34.2072 26.0938 34.8501 25.9769 35.5632 25.9769C36.2762 25.9769 36.9191 26.0938 37.4919 26.3276C38.0764 26.5497 38.5732 26.8712 38.9823 27.292C39.3915 27.7011 39.7071 28.2038 39.9292 28.7999C40.1513 29.3844 40.2623 30.039 40.2623 30.7638C40.2623 31.4885 40.1513 32.1431 39.9292 32.7276C39.7071 33.3121 39.3915 33.8147 38.9823 34.2355C38.5732 34.6447 38.0764 34.9603 37.4919 35.1824C36.9191 35.4045 36.2762 35.5155 35.5632 35.5155C34.8501 35.5155 34.2072 35.4045 33.6344 35.1824C33.0616 34.9603 32.5706 34.6447 32.1615 34.2355C31.7524 33.8147 31.4368 33.3121 31.2147 32.7276C30.9926 32.1431 30.8815 31.4885 30.8815 30.7638ZM41.8462 26.2224H44.1958V27.4498H44.2308C44.5581 26.9822 44.9497 26.6198 45.4056 26.3627C45.8732 26.1055 46.4051 25.9769 47.0012 25.9769C47.574 25.9769 48.0942 26.088 48.5618 26.3101C49.0411 26.5322 49.4034 26.9238 49.6489 27.4849C49.9178 27.0874 50.2801 26.7367 50.736 26.4328C51.2036 26.1289 51.753 25.9769 52.3842 25.9769C52.8635 25.9769 53.3077 26.0354 53.7168 26.1523C54.126 26.2691 54.4767 26.4562 54.7689 26.7134C55.0611 26.9705 55.2891 27.3095 55.4527 27.7303C55.6164 28.1395 55.6982 28.6363 55.6982 29.2207V35.2876H53.2084V30.1501C53.2084 29.8461 53.1967 29.5597 53.1733 29.2909C53.1499 29.022 53.0856 28.7882 52.9804 28.5895C52.8752 28.3908 52.7174 28.233 52.507 28.1161C52.3083 27.9992 52.0336 27.9407 51.6829 27.9407C51.3322 27.9407 51.0458 28.0109 50.8237 28.1512C50.6133 28.2797 50.4438 28.4551 50.3152 28.6772C50.1983 28.8876 50.1165 29.1331 50.0697 29.4136C50.0347 29.6825 50.0171 29.9572 50.0171 30.2377V35.2876H47.5273V30.2027C47.5273 29.9338 47.5214 29.6708 47.5097 29.4136C47.498 29.1448 47.4454 28.8993 47.3519 28.6772C47.2701 28.4551 47.124 28.2797 46.9136 28.1512C46.7148 28.0109 46.4168 27.9407 46.0193 27.9407C45.9024 27.9407 45.7446 27.97 45.5459 28.0284C45.3589 28.0752 45.1718 28.1745 44.9848 28.3265C44.8095 28.4668 44.6575 28.6772 44.5289 28.9577C44.4003 29.2266 44.336 29.5831 44.336 30.0273V35.2876H41.8462V26.2224ZM60.1212 24.8197H57.6314V22.7681H60.1212V24.8197ZM57.6314 26.2224H60.1212V35.2876H57.6314V26.2224ZM61.9766 26.2224H64.3437V27.4849H64.3963C64.7119 26.9588 65.121 26.5789 65.6237 26.3451C66.1263 26.0997 66.6407 25.9769 67.1667 25.9769C67.833 25.9769 68.3766 26.0704 68.7974 26.2575C69.2299 26.4328 69.5689 26.6841 69.8144 27.0114C70.0599 27.327 70.2294 27.7186 70.3229 28.1862C70.4281 28.6421 70.4807 29.1506 70.4807 29.7117V35.2876H67.9908V30.1676C67.9908 29.4195 67.8739 28.8642 67.6401 28.5018C67.4063 28.1278 66.9914 27.9407 66.3952 27.9407C65.7172 27.9407 65.2263 28.1453 64.9223 28.5544C64.6184 28.9519 64.4664 29.6123 64.4664 30.5358V35.2876H61.9766V26.2224ZM76.491 33.1484C76.8416 33.1484 77.1514 33.0783 77.4203 32.938C77.6891 32.7977 77.9112 32.6107 78.0866 32.3769C78.2619 32.1431 78.3905 31.8801 78.4723 31.5879C78.5658 31.2839 78.6126 30.9683 78.6126 30.641C78.6126 30.267 78.5775 29.9163 78.5074 29.589C78.4373 29.25 78.3204 28.9519 78.1567 28.6947C77.9931 28.4376 77.7768 28.233 77.5079 28.081C77.2391 27.9291 76.9001 27.8531 76.491 27.8531C76.1403 27.8531 75.8363 27.9232 75.5792 28.0635C75.3337 28.2038 75.1233 28.3966 74.9479 28.6421C74.7843 28.8759 74.6615 29.1506 74.5797 29.4662C74.5096 29.7702 74.4745 30.0916 74.4745 30.4306C74.4745 30.7579 74.5037 31.0852 74.5622 31.4125C74.6323 31.7281 74.7434 32.0145 74.8953 32.2717C75.059 32.5289 75.2694 32.7393 75.5266 32.9029C75.7837 33.0666 76.1052 33.1484 76.491 33.1484ZM80.9797 34.709C80.9797 35.0713 80.9271 35.4863 80.8219 35.9539C80.7284 36.4215 80.518 36.854 80.1907 37.2514C79.8634 37.6606 79.39 38.0054 78.7704 38.286C78.1509 38.5665 77.3209 38.7068 76.2805 38.7068C75.8363 38.7068 75.3805 38.6483 74.9129 38.5314C74.457 38.4262 74.0362 38.2567 73.6504 38.0229C73.2763 37.7892 72.9607 37.4852 72.7036 37.1112C72.4581 36.7488 72.3178 36.3104 72.2827 35.7961H74.7551C74.872 36.2637 75.0999 36.5851 75.4389 36.7605C75.7779 36.9475 76.1695 37.041 76.6137 37.041C77.3151 37.041 77.8236 36.8306 78.1392 36.4098C78.4665 35.989 78.6243 35.4571 78.6126 34.8142V33.6218H78.5775C78.3087 34.1011 77.9229 34.4576 77.4203 34.6914C76.9293 34.9135 76.4091 35.0246 75.8597 35.0246C75.1817 35.0246 74.5973 34.9077 74.1063 34.6739C73.6153 34.4284 73.2121 34.1011 72.8964 33.692C72.5808 33.2712 72.347 32.786 72.1951 32.2366C72.0548 31.6755 71.9847 31.0852 71.9847 30.4657C71.9847 29.8812 72.0665 29.3201 72.2301 28.7824C72.4055 28.233 72.6568 27.7537 72.9841 27.3446C73.3114 26.9238 73.7147 26.5906 74.194 26.3451C74.6849 26.0997 75.246 25.9769 75.8773 25.9769C76.4734 25.9769 76.9936 26.088 77.4378 26.3101C77.8937 26.5322 78.2736 26.9062 78.5775 27.4323H78.6126V26.2224H80.9797V34.709Z" fill="white"/>
<path d="M83.6208 22.7681H86.3737V27.5725H91.4411V22.7681H94.194V35.2876H91.4411V29.887H86.3737V35.2876H83.6208V22.7681ZM102.351 29.7818C102.234 29.1506 102.024 28.6713 101.72 28.344C101.428 28.0167 100.978 27.8531 100.37 27.8531C99.9723 27.8531 99.6391 27.9232 99.3703 28.0635C99.1131 28.1921 98.9027 28.3557 98.739 28.5544C98.5871 28.7532 98.476 28.9636 98.4059 29.1857C98.3474 29.4078 98.3124 29.6065 98.3007 29.7818H102.351ZM98.3007 31.3599C98.3357 32.1665 98.5403 32.751 98.9144 33.1134C99.2884 33.4757 99.8262 33.6569 100.528 33.6569C101.03 33.6569 101.463 33.5342 101.825 33.2887C102.187 33.0315 102.41 32.7627 102.491 32.4821H104.683C104.332 33.5692 103.795 34.3466 103.07 34.8142C102.345 35.2818 101.469 35.5155 100.44 35.5155C99.7268 35.5155 99.0839 35.4045 98.5111 35.1824C97.9383 34.9486 97.4532 34.6213 97.0557 34.2005C96.6583 33.7797 96.3485 33.277 96.1264 32.6925C95.916 32.1081 95.8108 31.4651 95.8108 30.7638C95.8108 30.0858 95.9219 29.4545 96.144 28.8701C96.3661 28.2856 96.6817 27.7829 97.0908 27.3621C97.4999 26.9296 97.9851 26.5906 98.5462 26.3451C99.1189 26.0997 99.7502 25.9769 100.44 25.9769C101.211 25.9769 101.884 26.1289 102.456 26.4328C103.029 26.725 103.497 27.1225 103.859 27.6251C104.233 28.1278 104.502 28.7006 104.666 29.3435C104.829 29.9864 104.888 30.6586 104.841 31.3599H98.3007ZM106.107 29.0103C106.142 28.4259 106.288 27.9407 106.546 27.555C106.803 27.1692 107.13 26.8595 107.528 26.6257C107.925 26.3919 108.369 26.2282 108.86 26.1347C109.363 26.0295 109.865 25.9769 110.368 25.9769C110.824 25.9769 111.286 26.012 111.753 26.0821C112.221 26.1406 112.648 26.2633 113.033 26.4503C113.419 26.6374 113.735 26.9004 113.98 27.2394C114.226 27.5667 114.348 28.005 114.348 28.5544V33.2712C114.348 33.6803 114.372 34.0719 114.418 34.446C114.465 34.82 114.547 35.1006 114.664 35.2876H112.139C112.092 35.1473 112.051 35.007 112.016 34.8668C111.993 34.7148 111.975 34.5628 111.964 34.4109C111.566 34.82 111.099 35.1064 110.561 35.2701C110.023 35.4337 109.474 35.5155 108.913 35.5155C108.48 35.5155 108.077 35.4629 107.703 35.3577C107.329 35.2525 107.001 35.0889 106.721 34.8668C106.44 34.6447 106.218 34.3641 106.055 34.0251C105.903 33.6861 105.827 33.2828 105.827 32.8153C105.827 32.3009 105.914 31.8801 106.09 31.5528C106.277 31.2138 106.511 30.9449 106.791 30.7462C107.083 30.5475 107.411 30.4014 107.773 30.3079C108.147 30.2027 108.521 30.1208 108.895 30.0624C109.269 30.0039 109.637 29.9572 110 29.9221C110.362 29.887 110.684 29.8344 110.964 29.7643C111.245 29.6942 111.467 29.5948 111.631 29.4662C111.794 29.326 111.87 29.1272 111.858 28.8701C111.858 28.6012 111.812 28.3908 111.718 28.2388C111.636 28.0752 111.519 27.9524 111.368 27.8706C111.227 27.7771 111.058 27.7186 110.859 27.6953C110.672 27.6602 110.467 27.6427 110.245 27.6427C109.754 27.6427 109.369 27.7479 109.088 27.9583C108.808 28.1687 108.644 28.5194 108.597 29.0103H106.107ZM111.858 30.8514C111.753 30.9449 111.619 31.0209 111.455 31.0794C111.303 31.1261 111.134 31.167 110.947 31.2021C110.771 31.2372 110.584 31.2664 110.386 31.2898C110.187 31.3132 109.988 31.3424 109.789 31.3775C109.602 31.4125 109.415 31.4593 109.228 31.5177C109.053 31.5762 108.895 31.658 108.755 31.7632C108.626 31.8567 108.521 31.9795 108.439 32.1314C108.357 32.2834 108.317 32.4763 108.317 32.7101C108.317 32.9322 108.357 33.1192 108.439 33.2712C108.521 33.4231 108.632 33.5459 108.772 33.6394C108.913 33.7212 109.076 33.7797 109.263 33.8147C109.45 33.8498 109.643 33.8673 109.842 33.8673C110.333 33.8673 110.713 33.7855 110.982 33.6218C111.251 33.4582 111.449 33.2653 111.578 33.0432C111.707 32.8094 111.783 32.5756 111.806 32.3418C111.841 32.1081 111.858 31.921 111.858 31.7807V30.8514ZM116.246 22.7681H118.736V35.2876H116.246V22.7681ZM123.747 26.2224H125.571V27.8881H123.747V32.3769C123.747 32.7977 123.817 33.0783 123.958 33.2186C124.098 33.3588 124.378 33.429 124.799 33.429C124.94 33.429 125.074 33.4231 125.203 33.4114C125.331 33.3997 125.454 33.3822 125.571 33.3588V35.2876C125.36 35.3227 125.127 35.346 124.869 35.3577C124.612 35.3694 124.361 35.3753 124.115 35.3753C123.73 35.3753 123.361 35.346 123.011 35.2876C122.672 35.2408 122.368 35.1415 122.099 34.9895C121.842 34.8376 121.637 34.6213 121.485 34.3407C121.333 34.0602 121.257 33.692 121.257 33.2361V27.8881H119.749V26.2224H121.257V23.5046H123.747V26.2224ZM126.65 22.7681H129.14V27.4849H129.193C129.508 26.9588 129.912 26.5789 130.403 26.3451C130.894 26.0997 131.373 25.9769 131.84 25.9769C132.507 25.9769 133.05 26.0704 133.471 26.2575C133.904 26.4328 134.243 26.6841 134.488 27.0114C134.734 27.327 134.903 27.7186 134.997 28.1862C135.102 28.6421 135.154 29.1506 135.154 29.7117V35.2876H132.665V30.1676C132.665 29.4195 132.548 28.8642 132.314 28.5018C132.08 28.1278 131.665 27.9407 131.069 27.9407C130.391 27.9407 129.9 28.1453 129.596 28.5544C129.292 28.9519 129.14 29.6123 129.14 30.5358V35.2876H126.65V22.7681Z" fill="white"/>
<path d="M72.3138 39.1934H73.6701L74.695 42.2066H74.7073L75.6769 39.1934H77.0332V43.5752H76.131V40.4699H76.1188L75.0448 43.5752H74.3022L73.2282 40.5006H73.216V43.5752H72.3138V39.1934ZM77.7894 41.3782C77.8017 41.1736 77.8528 41.0038 77.9428 40.8688C78.0328 40.7338 78.1474 40.6254 78.2865 40.5435C78.4256 40.4617 78.5811 40.4044 78.7529 40.3717C78.9288 40.3349 79.1048 40.3165 79.2807 40.3165C79.4403 40.3165 79.6019 40.3287 79.7655 40.3533C79.9292 40.3737 80.0785 40.4167 80.2135 40.4822C80.3485 40.5476 80.459 40.6397 80.5449 40.7583C80.6308 40.8729 80.6738 41.0263 80.6738 41.2186V42.8694C80.6738 43.0126 80.682 43.1497 80.6983 43.2806C80.7147 43.4115 80.7434 43.5097 80.7843 43.5752H79.9005C79.8842 43.5261 79.8699 43.477 79.8576 43.4279C79.8494 43.3747 79.8433 43.3215 79.8392 43.2683C79.7001 43.4115 79.5364 43.5118 79.3482 43.5691C79.16 43.6263 78.9677 43.655 78.7713 43.655C78.62 43.655 78.4788 43.6366 78.3479 43.5997C78.217 43.5629 78.1024 43.5056 78.0042 43.4279C77.906 43.3502 77.8283 43.252 77.771 43.1333C77.7178 43.0147 77.6912 42.8735 77.6912 42.7099C77.6912 42.5299 77.7219 42.3826 77.7833 42.268C77.8487 42.1494 77.9306 42.0553 78.0288 41.9857C78.131 41.9162 78.2456 41.865 78.3724 41.8323C78.5034 41.7955 78.6343 41.7668 78.7652 41.7464C78.8961 41.7259 79.025 41.7096 79.1518 41.6973C79.2787 41.685 79.3912 41.6666 79.4894 41.642C79.5876 41.6175 79.6653 41.5827 79.7226 41.5377C79.7798 41.4886 79.8064 41.4191 79.8023 41.3291C79.8023 41.235 79.786 41.1613 79.7533 41.1081C79.7246 41.0508 79.6837 41.0079 79.6305 40.9793C79.5814 40.9465 79.5221 40.9261 79.4525 40.9179C79.3871 40.9056 79.3155 40.8995 79.2377 40.8995C79.0659 40.8995 78.9309 40.9363 78.8327 41.0099C78.7345 41.0836 78.6772 41.2063 78.6609 41.3782H77.7894ZM79.8023 42.0225C79.7655 42.0553 79.7185 42.0819 79.6612 42.1023C79.608 42.1187 79.5487 42.133 79.4832 42.1453C79.4219 42.1576 79.3564 42.1678 79.2868 42.176C79.2173 42.1841 79.1477 42.1944 79.0782 42.2066C79.0127 42.2189 78.9473 42.2353 78.8818 42.2557C78.8204 42.2762 78.7652 42.3048 78.7161 42.3417C78.6711 42.3744 78.6343 42.4174 78.6056 42.4705C78.577 42.5237 78.5627 42.5912 78.5627 42.6731C78.5627 42.7508 78.577 42.8163 78.6056 42.8694C78.6343 42.9226 78.6731 42.9656 78.7222 42.9983C78.7713 43.027 78.8286 43.0474 78.8941 43.0597C78.9595 43.072 79.027 43.0781 79.0966 43.0781C79.2684 43.0781 79.4014 43.0495 79.4955 42.9922C79.5896 42.9349 79.6592 42.8674 79.7042 42.7897C79.7492 42.7078 79.7758 42.626 79.7839 42.5442C79.7962 42.4624 79.8023 42.3969 79.8023 42.3478V42.0225ZM81.387 40.4024H82.2155V40.8442H82.2339C82.3444 40.6601 82.4876 40.5272 82.6635 40.4453C82.8395 40.3594 83.0195 40.3165 83.2036 40.3165C83.4368 40.3165 83.627 40.3492 83.7743 40.4146C83.9257 40.476 84.0443 40.564 84.1303 40.6785C84.2162 40.789 84.2755 40.9261 84.3082 41.0897C84.3451 41.2493 84.3635 41.4272 84.3635 41.6236V43.5752H83.492V41.7832C83.492 41.5214 83.4511 41.327 83.3693 41.2002C83.2875 41.0693 83.1422 41.0038 82.9336 41.0038C82.6963 41.0038 82.5244 41.0754 82.418 41.2186C82.3117 41.3577 82.2585 41.5889 82.2585 41.9121V43.5752H81.387V40.4024ZM85.0249 41.3782C85.0371 41.1736 85.0883 41.0038 85.1783 40.8688C85.2683 40.7338 85.3829 40.6254 85.522 40.5435C85.6611 40.4617 85.8165 40.4044 85.9884 40.3717C86.1643 40.3349 86.3402 40.3165 86.5162 40.3165C86.6757 40.3165 86.8373 40.3287 87.001 40.3533C87.1646 40.3737 87.314 40.4167 87.449 40.4822C87.584 40.5476 87.6945 40.6397 87.7804 40.7583C87.8663 40.8729 87.9093 41.0263 87.9093 41.2186V42.8694C87.9093 43.0126 87.9174 43.1497 87.9338 43.2806C87.9502 43.4115 87.9788 43.5097 88.0197 43.5752H87.136C87.1196 43.5261 87.1053 43.477 87.093 43.4279C87.0849 43.3747 87.0787 43.3215 87.0746 43.2683C86.9355 43.4115 86.7719 43.5118 86.5837 43.5691C86.3955 43.6263 86.2032 43.655 86.0068 43.655C85.8554 43.655 85.7143 43.6366 85.5833 43.5997C85.4524 43.5629 85.3379 43.5056 85.2397 43.4279C85.1415 43.3502 85.0637 43.252 85.0065 43.1333C84.9533 43.0147 84.9267 42.8735 84.9267 42.7099C84.9267 42.5299 84.9574 42.3826 85.0187 42.268C85.0842 42.1494 85.166 42.0553 85.2642 41.9857C85.3665 41.9162 85.4811 41.865 85.6079 41.8323C85.7388 41.7955 85.8697 41.7668 86.0007 41.7464C86.1316 41.7259 86.2605 41.7096 86.3873 41.6973C86.5141 41.685 86.6266 41.6666 86.7248 41.642C86.823 41.6175 86.9007 41.5827 86.958 41.5377C87.0153 41.4886 87.0419 41.4191 87.0378 41.3291C87.0378 41.235 87.0214 41.1613 86.9887 41.1081C86.9601 41.0508 86.9192 41.0079 86.866 40.9793C86.8169 40.9465 86.7575 40.9261 86.688 40.9179C86.6225 40.9056 86.5509 40.8995 86.4732 40.8995C86.3014 40.8995 86.1664 40.9363 86.0682 41.0099C85.97 41.0836 85.9127 41.2063 85.8963 41.3782H85.0249ZM87.0378 42.0225C87.001 42.0553 86.9539 42.0819 86.8967 42.1023C86.8435 42.1187 86.7841 42.133 86.7187 42.1453C86.6573 42.1576 86.5919 42.1678 86.5223 42.176C86.4527 42.1841 86.3832 42.1944 86.3136 42.2066C86.2482 42.2189 86.1827 42.2353 86.1173 42.2557C86.0559 42.2762 86.0007 42.3048 85.9516 42.3417C85.9066 42.3744 85.8697 42.4174 85.8411 42.4705C85.8125 42.5237 85.7981 42.5912 85.7981 42.6731C85.7981 42.7508 85.8125 42.8163 85.8411 42.8694C85.8697 42.9226 85.9086 42.9656 85.9577 42.9983C86.0068 43.027 86.0641 43.0474 86.1295 43.0597C86.195 43.072 86.2625 43.0781 86.3321 43.0781C86.5039 43.0781 86.6369 43.0495 86.731 42.9922C86.8251 42.9349 86.8946 42.8674 86.9396 42.7897C86.9846 42.7078 87.0112 42.626 87.0194 42.5442C87.0317 42.4624 87.0378 42.3969 87.0378 42.3478V42.0225ZM90.1015 42.8265C90.2242 42.8265 90.3327 42.8019 90.4268 42.7528C90.5209 42.7037 90.5986 42.6383 90.66 42.5565C90.7213 42.4746 90.7663 42.3826 90.795 42.2803C90.8277 42.1739 90.8441 42.0635 90.8441 41.9489C90.8441 41.818 90.8318 41.6952 90.8073 41.5807C90.7827 41.462 90.7418 41.3577 90.6845 41.2677C90.6272 41.1777 90.5516 41.1061 90.4575 41.0529C90.3633 40.9997 90.2447 40.9731 90.1015 40.9731C89.9788 40.9731 89.8724 40.9977 89.7824 41.0468C89.6965 41.0959 89.6228 41.1634 89.5615 41.2493C89.5042 41.3311 89.4612 41.4272 89.4326 41.5377C89.408 41.6441 89.3958 41.7566 89.3958 41.8753C89.3958 41.9898 89.406 42.1044 89.4264 42.2189C89.451 42.3294 89.4899 42.4296 89.543 42.5196C89.6003 42.6096 89.674 42.6833 89.764 42.7406C89.854 42.7978 89.9665 42.8265 90.1015 42.8265ZM91.6726 43.3727C91.6726 43.4995 91.6542 43.6447 91.6173 43.8084C91.5846 43.9721 91.511 44.1234 91.3964 44.2625C91.2819 44.4057 91.1162 44.5264 90.8993 44.6246C90.6825 44.7228 90.392 44.7719 90.0279 44.7719C89.8724 44.7719 89.7128 44.7515 89.5492 44.7105C89.3896 44.6737 89.2423 44.6144 89.1073 44.5326C88.9764 44.4507 88.8659 44.3444 88.7759 44.2134C88.69 44.0866 88.6409 43.9332 88.6286 43.7532H89.4939C89.5349 43.9168 89.6146 44.0293 89.7333 44.0907C89.8519 44.1562 89.989 44.1889 90.1445 44.1889C90.3899 44.1889 90.5679 44.1153 90.6784 43.968C90.7929 43.8207 90.8482 43.6345 90.8441 43.4095V42.9922H90.8318C90.7377 43.1599 90.6027 43.2847 90.4268 43.3665C90.2549 43.4443 90.0729 43.4831 89.8806 43.4831C89.6433 43.4831 89.4387 43.4422 89.2669 43.3604C89.095 43.2745 88.9539 43.1599 88.8434 43.0167C88.733 42.8694 88.6511 42.6997 88.5979 42.5074C88.5488 42.311 88.5243 42.1044 88.5243 41.8875C88.5243 41.683 88.5529 41.4866 88.6102 41.2984C88.6716 41.1061 88.7596 40.9383 88.8741 40.7951C88.9887 40.6479 89.1298 40.5312 89.2976 40.4453C89.4694 40.3594 89.6658 40.3165 89.8867 40.3165C90.0954 40.3165 90.2774 40.3553 90.4329 40.4331C90.5925 40.5108 90.7254 40.6417 90.8318 40.8258H90.8441V40.4024H91.6726V43.3727ZM94.5467 41.6482C94.5058 41.4272 94.4321 41.2595 94.3258 41.1449C94.2235 41.0304 94.066 40.9731 93.8532 40.9731C93.7141 40.9731 93.5975 40.9977 93.5034 41.0468C93.4134 41.0918 93.3398 41.149 93.2825 41.2186C93.2293 41.2881 93.1904 41.3618 93.1659 41.4395C93.1454 41.5173 93.1331 41.5868 93.1291 41.6482H94.5467ZM93.1291 42.2005C93.1413 42.4828 93.2129 42.6874 93.3438 42.8142C93.4748 42.941 93.663 43.0045 93.9084 43.0045C94.0844 43.0045 94.2358 42.9615 94.3626 42.8756C94.4894 42.7856 94.5672 42.6915 94.5958 42.5933H95.3629C95.2402 42.9738 95.052 43.2458 94.7983 43.4095C94.5447 43.5731 94.2378 43.655 93.8778 43.655C93.6282 43.655 93.4032 43.6161 93.2027 43.5384C93.0022 43.4565 92.8324 43.342 92.6933 43.1947C92.5542 43.0474 92.4458 42.8715 92.3681 42.6669C92.2944 42.4624 92.2576 42.2373 92.2576 41.9919C92.2576 41.7546 92.2965 41.5336 92.3742 41.3291C92.4519 41.1245 92.5624 40.9486 92.7056 40.8013C92.8488 40.6499 93.0186 40.5312 93.215 40.4453C93.4154 40.3594 93.6364 40.3165 93.8778 40.3165C94.1478 40.3165 94.383 40.3696 94.5835 40.476C94.784 40.5783 94.9476 40.7174 95.0745 40.8933C95.2054 41.0693 95.2995 41.2697 95.3568 41.4948C95.4141 41.7198 95.4345 41.955 95.4181 42.2005H93.1291ZM95.9964 40.4024H96.8187V40.832H96.831C96.9456 40.6683 97.0826 40.5415 97.2422 40.4515C97.4058 40.3615 97.592 40.3165 97.8006 40.3165C98.0011 40.3165 98.1832 40.3553 98.3468 40.4331C98.5146 40.5108 98.6414 40.6479 98.7273 40.8442C98.8214 40.7051 98.9483 40.5824 99.1078 40.476C99.2715 40.3696 99.4638 40.3165 99.6847 40.3165C99.8524 40.3165 100.008 40.3369 100.151 40.3778C100.294 40.4187 100.417 40.4842 100.519 40.5742C100.622 40.6642 100.701 40.7829 100.759 40.9302C100.816 41.0734 100.845 41.2472 100.845 41.4518V43.5752H99.9731V41.7771C99.9731 41.6707 99.969 41.5704 99.9609 41.4763C99.9527 41.3822 99.9302 41.3004 99.8934 41.2309C99.8565 41.1613 99.8013 41.1061 99.7277 41.0652C99.6581 41.0243 99.562 41.0038 99.4392 41.0038C99.3165 41.0038 99.2162 41.0283 99.1385 41.0774C99.0649 41.1224 99.0055 41.1838 98.9605 41.2616C98.9196 41.3352 98.891 41.4211 98.8746 41.5193C98.8623 41.6134 98.8562 41.7096 98.8562 41.8077V43.5752H97.9847V41.7955C97.9847 41.7014 97.9827 41.6093 97.9786 41.5193C97.9745 41.4252 97.9561 41.3393 97.9234 41.2616C97.8947 41.1838 97.8436 41.1224 97.77 41.0774C97.7004 41.0283 97.5961 41.0038 97.457 41.0038C97.4161 41.0038 97.3608 41.014 97.2913 41.0345C97.2258 41.0508 97.1603 41.0856 97.0949 41.1388C97.0335 41.1879 96.9803 41.2616 96.9353 41.3597C96.8903 41.4538 96.8678 41.5786 96.8678 41.7341V43.5752H95.9964V40.4024ZM103.706 41.6482C103.665 41.4272 103.591 41.2595 103.485 41.1449C103.383 41.0304 103.225 40.9731 103.012 40.9731C102.873 40.9731 102.757 40.9977 102.663 41.0468C102.573 41.0918 102.499 41.149 102.442 41.2186C102.389 41.2881 102.35 41.3618 102.325 41.4395C102.305 41.5173 102.292 41.5868 102.288 41.6482H103.706ZM102.288 42.2005C102.301 42.4828 102.372 42.6874 102.503 42.8142C102.634 42.941 102.822 43.0045 103.068 43.0045C103.244 43.0045 103.395 42.9615 103.522 42.8756C103.649 42.7856 103.726 42.6915 103.755 42.5933H104.522C104.399 42.9738 104.211 43.2458 103.958 43.4095C103.704 43.5731 103.397 43.655 103.037 43.655C102.787 43.655 102.562 43.6161 102.362 43.5384C102.161 43.4565 101.992 43.342 101.853 43.1947C101.713 43.0474 101.605 42.8715 101.527 42.6669C101.454 42.4624 101.417 42.2373 101.417 41.9919C101.417 41.7546 101.456 41.5336 101.533 41.3291C101.611 41.1245 101.722 40.9486 101.865 40.8013C102.008 40.6499 102.178 40.5312 102.374 40.4453C102.575 40.3594 102.796 40.3165 103.037 40.3165C103.307 40.3165 103.542 40.3696 103.743 40.476C103.943 40.5783 104.107 40.7174 104.234 40.8933C104.365 41.0693 104.459 41.2697 104.516 41.4948C104.573 41.7198 104.594 41.955 104.577 42.2005H102.288ZM105.131 40.4024H105.96V40.8442H105.978C106.088 40.6601 106.232 40.5272 106.408 40.4453C106.584 40.3594 106.764 40.3165 106.948 40.3165C107.181 40.3165 107.371 40.3492 107.518 40.4146C107.67 40.476 107.788 40.564 107.874 40.6785C107.96 40.789 108.02 40.9261 108.052 41.0897C108.089 41.2493 108.108 41.4272 108.108 41.6236V43.5752H107.236V41.7832C107.236 41.5214 107.195 41.327 107.113 41.2002C107.032 41.0693 106.886 41.0038 106.678 41.0038C106.44 41.0038 106.268 41.0754 106.162 41.2186C106.056 41.3577 106.003 41.5889 106.003 41.9121V43.5752H105.131V40.4024ZM109.91 40.4024H110.549V40.9854H109.91V42.5565C109.91 42.7037 109.935 42.8019 109.984 42.851C110.033 42.9001 110.131 42.9247 110.279 42.9247C110.328 42.9247 110.375 42.9226 110.42 42.9185C110.465 42.9144 110.508 42.9083 110.549 42.9001V43.5752C110.475 43.5875 110.393 43.5957 110.303 43.5997C110.213 43.6038 110.125 43.6059 110.039 43.6059C109.904 43.6059 109.775 43.5957 109.653 43.5752C109.534 43.5588 109.428 43.5241 109.334 43.4709C109.244 43.4177 109.172 43.342 109.119 43.2438C109.066 43.1456 109.039 43.0167 109.039 42.8572V40.9854H108.511V40.4024H109.039V39.4511H109.91V40.4024Z" fill="white"/>
<path d="M112.643 39.1934H113.606V42.7651H115.742V43.5752H112.643V39.1934ZM117.121 39.9114H116.25V39.1934H117.121V39.9114ZM116.25 40.4024H117.121V43.5752H116.25V40.4024ZM117.869 40.4024H118.691V40.832H118.703C118.818 40.6683 118.955 40.5415 119.115 40.4515C119.278 40.3615 119.464 40.3165 119.673 40.3165C119.874 40.3165 120.056 40.3553 120.219 40.4331C120.387 40.5108 120.514 40.6479 120.6 40.8442C120.694 40.7051 120.821 40.5824 120.98 40.476C121.144 40.3696 121.336 40.3165 121.557 40.3165C121.725 40.3165 121.88 40.3369 122.024 40.3778C122.167 40.4187 122.289 40.4842 122.392 40.5742C122.494 40.6642 122.574 40.7829 122.631 40.9302C122.688 41.0734 122.717 41.2472 122.717 41.4518V43.5752H121.846V41.7771C121.846 41.6707 121.841 41.5704 121.833 41.4763C121.825 41.3822 121.803 41.3004 121.766 41.2309C121.729 41.1613 121.674 41.1061 121.6 41.0652C121.531 41.0243 121.434 41.0038 121.312 41.0038C121.189 41.0038 121.089 41.0283 121.011 41.0774C120.937 41.1224 120.878 41.1838 120.833 41.2616C120.792 41.3352 120.763 41.4211 120.747 41.5193C120.735 41.6134 120.729 41.7096 120.729 41.8077V43.5752H119.857V41.7955C119.857 41.7014 119.855 41.6093 119.851 41.5193C119.847 41.4252 119.829 41.3393 119.796 41.2616C119.767 41.1838 119.716 41.1224 119.642 41.0774C119.573 41.0283 119.469 41.0038 119.329 41.0038C119.288 41.0038 119.233 41.014 119.164 41.0345C119.098 41.0508 119.033 41.0856 118.967 41.1388C118.906 41.1879 118.853 41.2616 118.808 41.3597C118.763 41.4538 118.74 41.5786 118.74 41.7341V43.5752H117.869V40.4024ZM124.339 39.9114H123.467V39.1934H124.339V39.9114ZM123.467 40.4024H124.339V43.5752H123.467V40.4024ZM126.166 40.4024H126.805V40.9854H126.166V42.5565C126.166 42.7037 126.191 42.8019 126.24 42.851C126.289 42.9001 126.387 42.9247 126.535 42.9247C126.584 42.9247 126.631 42.9226 126.676 42.9185C126.721 42.9144 126.764 42.9083 126.805 42.9001V43.5752C126.731 43.5875 126.649 43.5957 126.559 43.5997C126.469 43.6038 126.381 43.6059 126.295 43.6059C126.16 43.6059 126.031 43.5957 125.909 43.5752C125.79 43.5588 125.684 43.5241 125.59 43.4709C125.5 43.4177 125.428 43.342 125.375 43.2438C125.322 43.1456 125.295 43.0167 125.295 42.8572V40.9854H124.767V40.4024H125.295V39.4511H126.166V40.4024ZM129.392 41.6482C129.351 41.4272 129.277 41.2595 129.171 41.1449C129.069 41.0304 128.911 40.9731 128.698 40.9731C128.559 40.9731 128.443 40.9977 128.348 41.0468C128.258 41.0918 128.185 41.149 128.128 41.2186C128.074 41.2881 128.035 41.3618 128.011 41.4395C127.99 41.5173 127.978 41.5868 127.974 41.6482H129.392ZM127.974 42.2005C127.986 42.4828 128.058 42.6874 128.189 42.8142C128.32 42.941 128.508 43.0045 128.754 43.0045C128.929 43.0045 129.081 42.9615 129.208 42.8756C129.334 42.7856 129.412 42.6915 129.441 42.5933H130.208C130.085 42.9738 129.897 43.2458 129.643 43.4095C129.39 43.5731 129.083 43.655 128.723 43.655C128.473 43.655 128.248 43.6161 128.048 43.5384C127.847 43.4565 127.677 43.342 127.538 43.1947C127.399 43.0474 127.291 42.8715 127.213 42.6669C127.139 42.4624 127.103 42.2373 127.103 41.9919C127.103 41.7546 127.142 41.5336 127.219 41.3291C127.297 41.1245 127.407 40.9486 127.551 40.8013C127.694 40.6499 127.864 40.5312 128.06 40.4453C128.261 40.3594 128.481 40.3165 128.723 40.3165C128.993 40.3165 129.228 40.3696 129.429 40.476C129.629 40.5783 129.793 40.7174 129.92 40.8933C130.05 41.0693 130.145 41.2697 130.202 41.4948C130.259 41.7198 130.28 41.955 130.263 42.2005H127.974ZM133.069 41.9796C133.069 41.8487 133.057 41.7239 133.032 41.6052C133.008 41.4825 132.965 41.3761 132.903 41.2861C132.846 41.192 132.77 41.1163 132.676 41.059C132.582 41.0018 132.464 40.9731 132.32 40.9731C132.177 40.9731 132.057 41.0018 131.958 41.059C131.86 41.1163 131.78 41.192 131.719 41.2861C131.662 41.3802 131.619 41.4886 131.59 41.6114C131.566 41.73 131.553 41.8548 131.553 41.9857C131.553 42.1085 131.568 42.2312 131.596 42.3539C131.625 42.4767 131.67 42.5871 131.731 42.6853C131.797 42.7794 131.877 42.8572 131.971 42.9185C132.069 42.9758 132.185 43.0045 132.32 43.0045C132.464 43.0045 132.582 42.9758 132.676 42.9185C132.775 42.8613 132.852 42.7856 132.91 42.6915C132.967 42.5933 133.008 42.4828 133.032 42.3601C133.057 42.2373 133.069 42.1105 133.069 41.9796ZM133.081 43.1702H133.069C132.967 43.342 132.832 43.4668 132.664 43.5445C132.5 43.6182 132.314 43.655 132.106 43.655C131.868 43.655 131.66 43.61 131.48 43.52C131.3 43.4259 131.15 43.3011 131.032 43.1456C130.917 42.986 130.829 42.804 130.768 42.5994C130.711 42.3948 130.682 42.1821 130.682 41.9612C130.682 41.7484 130.711 41.5439 130.768 41.3475C130.829 41.147 130.917 40.9711 131.032 40.8197C131.15 40.6683 131.298 40.5476 131.474 40.4576C131.649 40.3635 131.854 40.3165 132.087 40.3165C132.275 40.3165 132.453 40.3574 132.621 40.4392C132.793 40.5169 132.928 40.6335 133.026 40.789H133.038V39.1934H133.91V43.5752H133.081V43.1702Z" fill="white"/>
<path d="M119.233 0H126.247C130.12 0 133.26 3.14014 133.26 7.0137V18.411H119.233V0Z" fill="white"/>
<path d="M119.233 64H126.247C130.12 64 133.26 60.8599 133.26 56.9863V45.589H119.233V64Z" fill="white"/>
<path d="M138.659 22.7944H146.411C150.692 22.7944 154.163 26.2651 154.163 30.5464V33.4534C154.163 37.7347 150.692 41.2054 146.411 41.2054H138.659V22.7944Z" fill="white"/>
</svg>
