<svg width="58" height="58" viewBox="0 0 58 58" fill="none" xmlns="http://www.w3.org/2000/svg">
<g filter="url(#filter0_dddd_108_1556)">
<circle cx="29" cy="29" r="24" fill="white"/>
<circle cx="29" cy="29" r="23.25" stroke="url(#paint0_linear_108_1556)" stroke-width="1.5"/>
<circle cx="29" cy="29" r="23.25" stroke="url(#paint1_linear_108_1556)" stroke-width="1.5"/>
<circle cx="29" cy="29" r="23.25" stroke="url(#paint2_linear_108_1556)" stroke-width="1.5"/>
</g>
<g clip-path="url(#clip0_108_1556)">
<path d="M21.641 28.677C21.4489 28.3996 21.4092 28.0627 21.5281 27.7472L23.9702 21.2914C24.1181 20.9011 24.4977 20.6389 24.9138 20.6389H33.0859C33.5036 20.6389 33.8817 20.9011 34.0295 21.2914L36.4716 27.7472C36.5905 28.0612 36.5493 28.4011 36.3588 28.677C36.1682 28.9545 35.8649 29.113 35.5265 29.113H22.467C22.1347 29.113 21.8315 28.9545 21.641 28.677Z" fill="url(#paint3_linear_108_1556)"/>
<path d="M28.3025 38.1878C28.1104 38.4652 27.8086 38.6238 27.4717 38.6238H14.4122C14.0768 38.6238 13.7735 38.4652 13.5814 38.1878C13.3893 37.9103 13.3497 37.5719 13.4686 37.2579L15.9106 30.8021C16.0585 30.4119 16.4381 30.1497 16.8543 30.1497H25.0264C25.444 30.1497 25.8221 30.4119 25.9684 30.8021L28.412 37.2579C28.534 37.5719 28.493 37.9119 28.3025 38.1878Z" fill="url(#paint4_linear_108_1556)"/>
<path d="M44.4182 38.1878C44.2276 38.4653 43.9243 38.6238 43.5874 38.6238H30.5294C30.1941 38.6238 29.8922 38.4653 29.6986 38.1878C29.5066 37.9104 29.4654 37.572 29.5843 37.2579L32.0279 30.8006C32.1758 30.4119 32.5553 30.1497 32.97 30.1497H41.1421C41.5598 30.1497 41.9378 30.4119 42.0857 30.8021L44.5278 37.2579C44.6497 37.5735 44.6102 37.9119 44.4182 38.1878Z" fill="url(#paint5_linear_108_1556)"/>
</g>
<defs>
<filter id="filter0_dddd_108_1556" x="0.5" y="0.5" width="57" height="57" filterUnits="userSpaceOnUse" color-interpolation-filters="sRGB">
<feFlood flood-opacity="0" result="BackgroundImageFix"/>
<feColorMatrix in="SourceAlpha" type="matrix" values="0 0 0 0 0 0 0 0 0 0 0 0 0 0 0 0 0 0 127 0" result="hardAlpha"/>
<feOffset dx="-1.5" dy="1.5"/>
<feGaussianBlur stdDeviation="0.75"/>
<feComposite in2="hardAlpha" operator="out"/>
<feColorMatrix type="matrix" values="0 0 0 0 1 0 0 0 0 0 0 0 0 0 0.658824 0 0 0 0.2 0"/>
<feBlend mode="hard-light" in2="BackgroundImageFix" result="effect1_dropShadow_108_1556"/>
<feColorMatrix in="SourceAlpha" type="matrix" values="0 0 0 0 0 0 0 0 0 0 0 0 0 0 0 0 0 0 127 0" result="hardAlpha"/>
<feOffset dx="1.5" dy="-1.5"/>
<feGaussianBlur stdDeviation="1.5"/>
<feComposite in2="hardAlpha" operator="out"/>
<feColorMatrix type="matrix" values="0 0 0 0 1 0 0 0 0 0.392157 0 0 0 0 0.388235 0 0 0 0.4 0"/>
<feBlend mode="hard-light" in2="effect1_dropShadow_108_1556" result="effect2_dropShadow_108_1556"/>
<feColorMatrix in="SourceAlpha" type="matrix" values="0 0 0 0 0 0 0 0 0 0 0 0 0 0 0 0 0 0 127 0" result="hardAlpha"/>
<feOffset dx="1.5" dy="1.5"/>
<feGaussianBlur stdDeviation="1.5"/>
<feComposite in2="hardAlpha" operator="out"/>
<feColorMatrix type="matrix" values="0 0 0 0 0.662745 0 0 0 0 0.317647 0 0 0 0 0.545098 0 0 0 0.32 0"/>
<feBlend mode="hard-light" in2="effect2_dropShadow_108_1556" result="effect3_dropShadow_108_1556"/>
<feColorMatrix in="SourceAlpha" type="matrix" values="0 0 0 0 0 0 0 0 0 0 0 0 0 0 0 0 0 0 127 0" result="hardAlpha"/>
<feOffset dx="-1.5" dy="-1.5"/>
<feGaussianBlur stdDeviation="1.5"/>
<feComposite in2="hardAlpha" operator="out"/>
<feColorMatrix type="matrix" values="0 0 0 0 0.662745 0 0 0 0 0.317647 0 0 0 0 0.545098 0 0 0 0.32 0"/>
<feBlend mode="hard-light" in2="effect3_dropShadow_108_1556" result="effect4_dropShadow_108_1556"/>
<feBlend mode="normal" in="SourceGraphic" in2="effect4_dropShadow_108_1556" result="shape"/>
</filter>
<linearGradient id="paint0_linear_108_1556" x1="17.375" y1="7.25" x2="8.30321" y2="42.796" gradientUnits="userSpaceOnUse">
<stop offset="0.593445" stop-color="#A9518B"/>
<stop offset="1" stop-color="#A13332"/>
</linearGradient>
<linearGradient id="paint1_linear_108_1556" x1="39.5" y1="9.125" x2="26" y2="41.375" gradientUnits="userSpaceOnUse">
<stop stop-color="#FF6463"/>
<stop offset="0.421574" stop-opacity="0"/>
</linearGradient>
<linearGradient id="paint2_linear_108_1556" x1="39.5" y1="9.125" x2="16.25" y2="48.875" gradientUnits="userSpaceOnUse">
<stop offset="0.578426" stop-opacity="0"/>
<stop offset="1" stop-color="#FF00A8"/>
</linearGradient>
<linearGradient id="paint3_linear_108_1556" x1="21.4609" y1="20.6389" x2="20.6116" y2="27.4452" gradientUnits="userSpaceOnUse">
<stop offset="0.27" stop-color="#EF4948"/>
<stop offset="1" stop-color="#A9518B"/>
</linearGradient>
<linearGradient id="paint4_linear_108_1556" x1="13.4014" y1="30.1497" x2="12.5521" y2="36.956" gradientUnits="userSpaceOnUse">
<stop offset="0.27" stop-color="#EF4948"/>
<stop offset="1" stop-color="#A9518B"/>
</linearGradient>
<linearGradient id="paint5_linear_108_1556" x1="29.5176" y1="30.1497" x2="28.6683" y2="36.956" gradientUnits="userSpaceOnUse">
<stop offset="0.27" stop-color="#EF4948"/>
<stop offset="1" stop-color="#A9518B"/>
</linearGradient>
<clipPath id="clip0_108_1556">
<rect width="32" height="18.6667" fill="white" transform="translate(13 20)"/>
</clipPath>
</defs>
</svg>
