<svg width="35" height="64" viewBox="0 0 35 64" fill="none" xmlns="http://www.w3.org/2000/svg">
<g filter="url(#filter0_b_58_1585)">
<path d="M0 0H7.0137C10.8873 0 14.0274 3.14014 14.0274 7.0137V18.411H0V0Z" fill="url(#paint0_linear_58_1585)"/>
<path d="M0 63.9999H7.0137C10.8873 63.9999 14.0274 60.8597 14.0274 56.9862V45.5889H0V63.9999Z" fill="url(#paint1_linear_58_1585)"/>
<path d="M19.426 22.7944H27.178C31.4593 22.7944 34.93 26.2651 34.93 30.5464V33.4534C34.93 37.7347 31.4593 41.2054 27.178 41.2054H19.426V22.7944Z" fill="url(#paint2_linear_58_1585)"/>
</g>
<defs>
<filter id="filter0_b_58_1585" x="-4" y="-4" width="42.9299" height="72" filterUnits="userSpaceOnUse" color-interpolation-filters="sRGB">
<feFlood flood-opacity="0" result="BackgroundImageFix"/>
<feGaussianBlur in="BackgroundImageFix" stdDeviation="2"/>
<feComposite in2="SourceAlpha" operator="in" result="effect1_backgroundBlur_58_1585"/>
<feBlend mode="normal" in="SourceGraphic" in2="effect1_backgroundBlur_58_1585" result="shape"/>
</filter>
<linearGradient id="paint0_linear_58_1585" x1="7.0137" y1="0" x2="7.0137" y2="18.411" gradientUnits="userSpaceOnUse">
<stop stop-color="white" stop-opacity="0.12"/>
<stop offset="1" stop-color="white" stop-opacity="0.08"/>
</linearGradient>
<linearGradient id="paint1_linear_58_1585" x1="7.0137" y1="63.9999" x2="7.0137" y2="45.5889" gradientUnits="userSpaceOnUse">
<stop stop-color="white" stop-opacity="0.12"/>
<stop offset="1" stop-color="white" stop-opacity="0.08"/>
</linearGradient>
<linearGradient id="paint2_linear_58_1585" x1="27.178" y1="22.7944" x2="27.178" y2="41.2054" gradientUnits="userSpaceOnUse">
<stop stop-color="white" stop-opacity="0.12"/>
<stop offset="1" stop-color="white" stop-opacity="0.08"/>
</linearGradient>
</defs>
</svg>
