<svg width="20" height="20" viewBox="0 0 20 20" fill="none" xmlns="http://www.w3.org/2000/svg">
<path fill-rule="evenodd" clip-rule="evenodd" d="M4.9974 2.5C3.15645 2.5 1.66406 3.99238 1.66406 5.83333V14.1667C1.66406 16.0076 3.15645 17.5 4.9974 17.5H14.9974C16.8383 17.5 18.3307 16.0076 18.3307 14.1667V5.83333C18.3307 3.99238 16.8383 2.5 14.9974 2.5H4.9974ZM5.34409 6.1466C5.05688 5.95513 4.66884 6.03274 4.47737 6.31994C4.2859 6.60715 4.36351 6.99519 4.65071 7.18666L7.80171 9.28733C9.13131 10.1737 10.8635 10.1737 12.1931 9.28733L15.3441 7.18666C15.6313 6.99519 15.7089 6.60715 15.5174 6.31994C15.326 6.03274 14.9379 5.95513 14.6507 6.1466L11.4997 8.24727C10.59 8.85375 9.40481 8.85375 8.49509 8.24727L5.34409 6.1466Z" fill="#A9518B"/>
</svg>
