<svg width="76" height="76" viewBox="0 0 76 76" fill="none" xmlns="http://www.w3.org/2000/svg">
<g filter="url(#filter0_dddd_58_228)">
<circle cx="38" cy="38" r="32" fill="white"/>
<circle cx="38" cy="38" r="31" stroke="url(#paint0_linear_58_228)" stroke-width="2"/>
<circle cx="38" cy="38" r="31" stroke="url(#paint1_linear_58_228)" stroke-width="2"/>
<circle cx="38" cy="38" r="31" stroke="url(#paint2_linear_58_228)" stroke-width="2"/>
</g>
<g clip-path="url(#clip0_58_228)">
<path d="M39.7214 47.4455C39.5684 47.5999 39.3861 47.7223 39.1853 47.8057C38.9845 47.889 38.7692 47.9316 38.5518 47.931V53.4317C38.5514 53.5408 38.5838 53.6475 38.6448 53.738C38.7058 53.8285 38.7925 53.8986 38.8938 53.9392C38.9943 53.9813 39.105 53.9928 39.212 53.9722C39.319 53.9515 39.4175 53.8998 39.4952 53.8234L41.4152 51.8979C42.0841 51.2342 42.6143 50.4442 42.9752 49.5737C43.3361 48.7033 43.5203 47.7698 43.5172 46.8276V43.6497L39.7214 47.4455Z" fill="url(#paint3_linear_58_228)"/>
<path d="M29.1726 32.483C28.2302 32.4787 27.2964 32.6624 26.4258 33.0234C25.5552 33.3843 24.7653 33.9152 24.1023 34.585L22.1768 36.505C22.1004 36.5827 22.0487 36.6812 22.0281 36.7882C22.0074 36.8952 22.0189 37.0059 22.061 37.1064C22.1016 37.2077 22.1717 37.2945 22.2622 37.3555C22.3527 37.4165 22.4594 37.4489 22.5686 37.4485H28.0692C28.0686 37.2311 28.1112 37.0157 28.1945 36.8149C28.2779 36.6141 28.4003 36.4319 28.5547 36.2788L32.3506 32.483H29.1726Z" fill="url(#paint4_linear_58_228)"/>
<path d="M53.4482 22.0003C50.9483 21.9961 48.4662 22.4216 46.1104 23.2582L46.9821 24.1299C47.6152 23.9155 48.2599 23.7369 48.9131 23.5947C49.0571 23.5652 49.2069 23.593 49.3306 23.6724C49.4543 23.7518 49.5421 23.8764 49.5752 24.0196C49.6062 24.1622 49.5796 24.3113 49.501 24.4344C49.4224 24.5574 49.2983 24.6443 49.1558 24.6761C48.72 24.7699 48.2896 24.8858 47.8648 25.0127L52.742 29.8899C53.5782 27.5339 54.0036 25.0519 53.9999 22.552C53.9995 22.4058 53.9413 22.2657 53.8379 22.1623C53.7345 22.059 53.5944 22.0007 53.4482 22.0003ZM51.2413 24.2072C51.1322 24.2072 51.0256 24.1748 50.9348 24.1142C50.8441 24.0535 50.7734 23.9674 50.7316 23.8666C50.6899 23.7658 50.6789 23.6548 50.7002 23.5478C50.7215 23.4408 50.7741 23.3425 50.8512 23.2653C50.9284 23.1882 51.0267 23.1356 51.1337 23.1143C51.2407 23.093 51.3517 23.104 51.4525 23.1457C51.5533 23.1875 51.6395 23.2582 51.7001 23.3489C51.7607 23.4396 51.7931 23.5463 51.7931 23.6554C51.7926 23.8016 51.7344 23.9417 51.631 24.0451C51.5276 24.1485 51.3875 24.2067 51.2413 24.2072Z" fill="url(#paint5_linear_58_228)"/>
<path d="M29.603 39.6663L27.3851 40.2235C27.2907 40.2471 27.2042 40.2953 27.1345 40.3631C27.0647 40.4309 27.0141 40.516 26.9878 40.6097C26.9613 40.704 26.9601 40.8036 26.9844 40.8985C27.0086 40.9934 27.0573 41.0803 27.1258 41.1504L34.8498 48.8745C34.9199 48.9429 35.0068 48.9917 35.1017 49.0159C35.1966 49.0401 35.2962 49.0389 35.3905 49.0124C35.4842 48.9861 35.5693 48.9355 35.6371 48.8658C35.7049 48.796 35.7531 48.7095 35.7767 48.6152L36.334 46.3972L29.603 39.6663Z" fill="url(#paint6_linear_58_228)"/>
<path d="M22.1619 53.8384C22.0801 53.7567 22.026 53.6514 22.0074 53.5373C21.9888 53.4232 22.0066 53.3061 22.0582 53.2026C22.379 52.5577 25.219 46.8799 26.1185 45.9806C26.6363 45.4641 27.3378 45.1741 28.0692 45.1741C28.8006 45.1741 29.5021 45.4641 30.0199 45.9806C30.5364 46.4984 30.8264 47.1999 30.8264 47.9313C30.8264 48.6626 30.5364 49.3642 30.0199 49.8819C29.1206 50.7813 23.4429 53.6215 22.7978 53.9423C22.6944 53.9939 22.5773 54.0117 22.4631 53.993C22.349 53.9744 22.2436 53.9203 22.1619 53.8384Z" fill="url(#paint7_linear_58_228)"/>
<path d="M46.6841 25.3989C45.4875 25.8316 44.3377 26.3843 43.2524 27.0485C43.1664 27.1025 43.067 27.1312 42.9655 27.1313C42.8452 27.1305 42.7284 27.0905 42.6327 27.0175C42.5371 26.9444 42.4679 26.8422 42.4355 26.7263C42.4031 26.6104 42.4093 26.4871 42.4531 26.375C42.497 26.263 42.5761 26.1682 42.6786 26.1051C43.6812 25.4939 44.7354 24.9714 45.8289 24.5437L44.9793 23.6941C42.3638 24.7929 39.9889 26.3937 37.989 28.4058L29.3325 37.0568C29.2291 37.1609 29.1711 37.3017 29.1711 37.4485C29.1711 37.5952 29.2291 37.736 29.3325 37.8402L38.16 46.6677C38.2646 46.7703 38.4053 46.8277 38.5518 46.8277C38.6982 46.8277 38.8389 46.7703 38.9435 46.6677L47.5944 38.0112C49.6066 36.0113 51.2073 33.6365 52.3061 31.0209L46.6841 25.3989ZM41.8621 36.8968C41.3165 36.8968 40.7831 36.735 40.3295 36.4318C39.8758 36.1287 39.5223 35.6979 39.3135 35.1938C39.1047 34.6898 39.05 34.1351 39.1565 33.6C39.2629 33.0649 39.5257 32.5733 39.9115 32.1875C40.2972 31.8017 40.7888 31.539 41.3239 31.4326C41.859 31.3261 42.4137 31.3807 42.9177 31.5895C43.4218 31.7983 43.8527 32.1519 44.1558 32.6056C44.4589 33.0592 44.6207 33.5926 44.6207 34.1382C44.6204 34.8697 44.3297 35.5712 43.8124 36.0885C43.2951 36.6058 42.5936 36.8965 41.8621 36.8968Z" fill="url(#paint8_linear_58_228)"/>
<path d="M41.8622 35.7932C42.7763 35.7932 43.5174 35.0522 43.5174 34.1381C43.5174 33.224 42.7763 32.4829 41.8622 32.4829C40.9481 32.4829 40.207 33.224 40.207 34.1381C40.207 35.0522 40.9481 35.7932 41.8622 35.7932Z" fill="url(#paint9_linear_58_228)"/>
</g>
<defs>
<filter id="filter0_dddd_58_228" x="0" y="0" width="76" height="76" filterUnits="userSpaceOnUse" color-interpolation-filters="sRGB">
<feFlood flood-opacity="0" result="BackgroundImageFix"/>
<feColorMatrix in="SourceAlpha" type="matrix" values="0 0 0 0 0 0 0 0 0 0 0 0 0 0 0 0 0 0 127 0" result="hardAlpha"/>
<feOffset dx="-2" dy="2"/>
<feGaussianBlur stdDeviation="1"/>
<feComposite in2="hardAlpha" operator="out"/>
<feColorMatrix type="matrix" values="0 0 0 0 1 0 0 0 0 0 0 0 0 0 0.658824 0 0 0 0.2 0"/>
<feBlend mode="hard-light" in2="BackgroundImageFix" result="effect1_dropShadow_58_228"/>
<feColorMatrix in="SourceAlpha" type="matrix" values="0 0 0 0 0 0 0 0 0 0 0 0 0 0 0 0 0 0 127 0" result="hardAlpha"/>
<feOffset dx="2" dy="-2"/>
<feGaussianBlur stdDeviation="2"/>
<feComposite in2="hardAlpha" operator="out"/>
<feColorMatrix type="matrix" values="0 0 0 0 1 0 0 0 0 0.392157 0 0 0 0 0.388235 0 0 0 0.4 0"/>
<feBlend mode="hard-light" in2="effect1_dropShadow_58_228" result="effect2_dropShadow_58_228"/>
<feColorMatrix in="SourceAlpha" type="matrix" values="0 0 0 0 0 0 0 0 0 0 0 0 0 0 0 0 0 0 127 0" result="hardAlpha"/>
<feOffset dx="2" dy="2"/>
<feGaussianBlur stdDeviation="2"/>
<feComposite in2="hardAlpha" operator="out"/>
<feColorMatrix type="matrix" values="0 0 0 0 0.662745 0 0 0 0 0.317647 0 0 0 0 0.545098 0 0 0 0.32 0"/>
<feBlend mode="hard-light" in2="effect2_dropShadow_58_228" result="effect3_dropShadow_58_228"/>
<feColorMatrix in="SourceAlpha" type="matrix" values="0 0 0 0 0 0 0 0 0 0 0 0 0 0 0 0 0 0 127 0" result="hardAlpha"/>
<feOffset dx="-2" dy="-2"/>
<feGaussianBlur stdDeviation="2"/>
<feComposite in2="hardAlpha" operator="out"/>
<feColorMatrix type="matrix" values="0 0 0 0 0.662745 0 0 0 0 0.317647 0 0 0 0 0.545098 0 0 0 0.32 0"/>
<feBlend mode="hard-light" in2="effect3_dropShadow_58_228" result="effect4_dropShadow_58_228"/>
<feBlend mode="normal" in="SourceGraphic" in2="effect4_dropShadow_58_228" result="shape"/>
</filter>
<linearGradient id="paint0_linear_58_228" x1="22.5" y1="9" x2="10.4043" y2="56.3947" gradientUnits="userSpaceOnUse">
<stop offset="0.593445" stop-color="#A9518B"/>
<stop offset="1" stop-color="#A13332"/>
</linearGradient>
<linearGradient id="paint1_linear_58_228" x1="52" y1="11.5" x2="34" y2="54.5" gradientUnits="userSpaceOnUse">
<stop stop-color="#FF6463"/>
<stop offset="0.421574" stop-opacity="0"/>
</linearGradient>
<linearGradient id="paint2_linear_58_228" x1="52" y1="11.5" x2="21" y2="64.5" gradientUnits="userSpaceOnUse">
<stop offset="0.578426" stop-opacity="0"/>
<stop offset="1" stop-color="#FF00A8"/>
</linearGradient>
<linearGradient id="paint3_linear_58_228" x1="38.5518" y1="43.6497" x2="35.3428" y2="50.5952" gradientUnits="userSpaceOnUse">
<stop offset="0.27" stop-color="#EF4948"/>
<stop offset="1" stop-color="#A9518B"/>
</linearGradient>
<linearGradient id="paint4_linear_58_228" x1="22.0181" y1="32.4829" x2="21.5907" y2="36.4877" gradientUnits="userSpaceOnUse">
<stop offset="0.27" stop-color="#EF4948"/>
<stop offset="1" stop-color="#A9518B"/>
</linearGradient>
<linearGradient id="paint5_linear_58_228" x1="46.1104" y1="22.0002" x2="44.7486" y2="28.1334" gradientUnits="userSpaceOnUse">
<stop offset="0.27" stop-color="#EF4948"/>
<stop offset="1" stop-color="#A9518B"/>
</linearGradient>
<linearGradient id="paint6_linear_58_228" x1="26.967" y1="39.6663" x2="25.3503" y2="46.9478" gradientUnits="userSpaceOnUse">
<stop offset="0.27" stop-color="#EF4948"/>
<stop offset="1" stop-color="#A9518B"/>
</linearGradient>
<linearGradient id="paint7_linear_58_228" x1="22.0002" y1="45.1741" x2="20.4768" y2="52.0353" gradientUnits="userSpaceOnUse">
<stop offset="0.27" stop-color="#EF4948"/>
<stop offset="1" stop-color="#A9518B"/>
</linearGradient>
<linearGradient id="paint8_linear_58_228" x1="29.1711" y1="23.6941" x2="25.1785" y2="41.6776" gradientUnits="userSpaceOnUse">
<stop offset="0.27" stop-color="#EF4948"/>
<stop offset="1" stop-color="#A9518B"/>
</linearGradient>
<linearGradient id="paint9_linear_58_228" x1="40.207" y1="32.4829" x2="39.6357" y2="35.0563" gradientUnits="userSpaceOnUse">
<stop offset="0.27" stop-color="#EF4948"/>
<stop offset="1" stop-color="#A9518B"/>
</linearGradient>
<clipPath id="clip0_58_228">
<rect width="31.9998" height="32" fill="white" transform="translate(22.0002 22.0002)"/>
</clipPath>
</defs>
</svg>
