<svg width="32" height="19" viewBox="0 0 32 19" fill="none" xmlns="http://www.w3.org/2000/svg">
<g clip-path="url(#clip0_123_2104)">
<path d="M8.64095 8.67704C8.44888 8.3996 8.40924 8.06272 8.52815 7.74717L10.9702 1.29137C11.1181 0.901122 11.4977 0.638916 11.9138 0.638916H20.0859C20.5036 0.638916 20.8817 0.90111 21.0295 1.29137L23.4716 7.74717C23.5905 8.0612 23.5493 8.40114 23.3588 8.67704C23.1682 8.95448 22.8649 9.11302 22.5265 9.11302H9.46697C9.13465 9.11302 8.83151 8.95449 8.64095 8.67704Z" fill="url(#paint0_linear_123_2104)"/>
<path d="M15.3025 18.1878C15.1104 18.4652 14.8086 18.6238 14.4717 18.6238H1.41217C1.0768 18.6238 0.773458 18.4652 0.58138 18.1878C0.389306 17.9103 0.349672 17.5719 0.468576 17.2579L2.91064 10.8021C3.05851 10.4119 3.4381 10.1497 3.85425 10.1497H12.0264C12.444 10.1497 12.8221 10.4119 12.9684 10.8021L15.412 17.2579C15.534 17.5719 15.493 17.9119 15.3025 18.1878Z" fill="url(#paint1_linear_123_2104)"/>
<path d="M31.4182 18.1878C31.2276 18.4653 30.9243 18.6238 30.5874 18.6238H17.5294C17.1941 18.6238 16.8922 18.4653 16.6986 18.1878C16.5066 17.9104 16.4654 17.572 16.5843 17.2579L19.0279 10.8006C19.1758 10.4119 19.5553 10.1497 19.97 10.1497H28.1421C28.5598 10.1497 28.9378 10.4119 29.0857 10.8021L31.5278 17.2579C31.6497 17.5735 31.6102 17.9119 31.4182 18.1878Z" fill="url(#paint2_linear_123_2104)"/>
</g>
<defs>
<linearGradient id="paint0_linear_123_2104" x1="8.46094" y1="0.638916" x2="7.61158" y2="7.4452" gradientUnits="userSpaceOnUse">
<stop offset="0.27" stop-color="#EF4948"/>
<stop offset="1" stop-color="#A9518B"/>
</linearGradient>
<linearGradient id="paint1_linear_123_2104" x1="0.401367" y1="10.1497" x2="-0.447859" y2="16.956" gradientUnits="userSpaceOnUse">
<stop offset="0.27" stop-color="#EF4948"/>
<stop offset="1" stop-color="#A9518B"/>
</linearGradient>
<linearGradient id="paint2_linear_123_2104" x1="16.5176" y1="10.1497" x2="15.6683" y2="16.956" gradientUnits="userSpaceOnUse">
<stop offset="0.27" stop-color="#EF4948"/>
<stop offset="1" stop-color="#A9518B"/>
</linearGradient>
<clipPath id="clip0_123_2104">
<rect width="32" height="18.6667" fill="white"/>
</clipPath>
</defs>
</svg>
