<svg width="27" height="24" viewBox="0 0 27 24" fill="none" xmlns="http://www.w3.org/2000/svg">
<g clip-path="url(#clip0_123_2109)">
<path d="M10.3793 0.127562C10.2449 0.130862 10.1144 0.142275 9.99025 0.162975C8.99515 0.329715 8.09395 1.16591 7.18675 1.48967C6.27955 1.81337 4.75525 1.84225 3.98845 2.30419C3.22135 2.76613 2.99515 3.79169 2.41315 4.36499C1.83115 4.93829 0.500946 5.44516 0.137646 6.09649C-0.687954 9.46672 3.20515 11.8534 7.21885 13.1471C3.21265 13.5815 -0.656454 14.4954 0.164946 16.2608C0.528246 16.6036 1.85815 16.8702 2.44015 17.172C3.02215 17.4737 3.24805 18.0138 4.01515 18.2569C4.78195 18.5001 6.30595 18.5153 7.21345 18.6857C8.12065 18.8562 9.02245 19.2962 10.0175 19.384C10.1417 19.3948 10.2716 19.4002 10.406 19.4026C11.3486 19.4152 12.5093 19.2318 13.4063 19.2318C14.4308 19.2318 15.8006 19.4717 16.7957 19.384C17.7908 19.2962 18.6908 18.8561 19.5977 18.6857C20.5052 18.5153 22.0298 18.5 22.7969 18.2569C23.5637 18.0137 23.7902 17.4737 24.3722 17.1719C24.9542 16.8701 26.2841 16.6035 26.6474 16.2607C28.2764 14.5494 23.9471 13.6036 19.5821 13.1499C23.9402 11.8079 28.2419 9.33232 26.6204 6.09643C26.2571 5.4451 24.9272 4.93823 24.3449 4.3649C23.7629 3.79163 23.5367 2.76608 22.7699 2.30414C22.0028 1.8422 20.4785 1.8133 19.571 1.48957C18.6641 1.16584 17.7632 0.329612 16.7684 0.162902C15.7733 -0.00383835 14.4035 0.451952 13.379 0.451952C12.4823 0.451952 11.3219 0.103142 10.3793 0.127562ZM13.4978 9.19776C14.0165 9.19779 14.5301 9.29997 15.0092 9.49848C15.4884 9.69699 15.9238 9.98794 16.2905 10.3547C16.6572 10.7215 16.9481 11.1569 17.1466 11.6361C17.345 12.1153 17.4471 12.6289 17.447 13.1476C17.447 14.1949 17.0309 15.1994 16.2903 15.9401C15.5497 16.6807 14.5452 17.0968 13.4978 17.0968C12.9792 17.0969 12.4656 16.9947 11.9865 16.7963C11.5073 16.5978 11.0719 16.3069 10.7052 15.9402C10.3384 15.5734 10.0475 15.1381 9.84901 14.6589C9.65052 14.1797 9.54835 13.6662 9.54835 13.1476C9.54829 12.6289 9.65041 12.1152 9.84887 11.636C10.0473 11.1568 10.3382 10.7214 10.705 10.3546C11.0717 9.98783 11.5071 9.69688 11.9864 9.49839C12.4656 9.2999 12.9792 9.19775 13.4978 9.19776ZM16.1939 12.8369C16.1129 12.8383 16.0356 12.8718 15.9791 12.93C15.9227 12.9882 15.8916 13.0665 15.8927 13.1476C15.8927 13.4791 15.8258 13.7932 15.7043 14.0793C15.5834 14.3657 15.4076 14.624 15.191 14.8408C14.9741 15.0578 14.7161 15.2328 14.4296 15.3538C14.1437 15.4749 13.8293 15.5419 13.4978 15.5419C13.4572 15.5413 13.4168 15.5487 13.3791 15.5638C13.3413 15.5789 13.307 15.6013 13.278 15.6298C13.249 15.6583 13.226 15.6923 13.2103 15.7298C13.1946 15.7673 13.1865 15.8076 13.1865 15.8482C13.1865 15.8889 13.1946 15.9291 13.2103 15.9666C13.226 16.0041 13.249 16.0381 13.278 16.0666C13.307 16.0951 13.3413 16.1176 13.3791 16.1327C13.4168 16.1478 13.4572 16.1552 13.4978 16.1545C13.9121 16.1545 14.3084 16.0704 14.6684 15.9181C15.0287 15.7658 15.3521 15.5457 15.6242 15.2739C15.896 15.002 16.1165 14.6781 16.2689 14.3182C16.4213 13.9581 16.5053 13.5618 16.5053 13.1476C16.5059 13.1065 16.4983 13.0658 16.4828 13.0278C16.4673 12.9898 16.4444 12.9553 16.4154 12.9264C16.3863 12.8974 16.3518 12.8746 16.3137 12.8592C16.2757 12.8438 16.235 12.8363 16.1939 12.8369ZM26.8796 16.858C26.5364 17.1052 26.1698 17.187 25.7792 17.3146C25.3178 17.4655 24.8381 17.6195 24.6506 17.7166C24.4634 17.8137 24.3077 17.9699 24.0617 18.1919C23.8154 18.4138 23.471 18.6855 22.9796 18.8413C22.4879 18.9971 21.9026 19.0531 21.305 19.1093C20.7071 19.1655 20.1035 19.214 19.7078 19.2883C18.9167 19.437 17.9882 19.894 16.8467 19.9947C15.7055 20.0954 14.3321 19.8449 13.4036 19.8449C12.5903 19.8449 11.4242 20.0297 10.3949 20.0157C10.3842 20.015 10.3735 20.014 10.3628 20.0127C10.2302 20.0097 10.0982 20.0053 9.96625 19.9936C8.82475 19.8929 7.89475 19.4358 7.10335 19.2872C6.70765 19.2128 6.10525 19.1644 5.50765 19.1082C4.90975 19.052 4.32415 18.9959 3.83305 18.8402C3.34135 18.6843 2.99695 18.4127 2.75095 18.1907C2.50465 17.9688 2.34805 17.8126 2.16085 17.7155C1.97365 17.6184 1.49455 17.4643 1.03285 17.3135C0.671946 17.1955 0.331446 17.1167 0.011046 16.9105C-0.015954 17.2182 0.011046 17.5481 0.095646 17.9036C0.459246 18.5549 1.78885 19.0618 2.37115 19.6351C2.95315 20.2084 3.17845 21.2339 3.94555 21.6959C4.71235 22.1579 6.23665 22.1867 7.14385 22.5104C8.05105 22.8342 8.95315 23.6704 9.94825 23.8371C10.0724 23.8578 10.2023 23.8691 10.3364 23.8725C11.2793 23.8971 12.4403 23.548 13.3373 23.548C14.3615 23.548 15.7313 24.0038 16.7261 23.8371C17.7212 23.6704 18.6212 22.8342 19.5281 22.5104C20.4356 22.1868 21.9608 22.1579 22.7276 21.6959C23.4947 21.2339 23.7209 20.2084 24.3029 19.6351C24.8852 19.0618 26.2151 18.5549 26.5784 17.9036C26.7665 17.5277 26.8631 17.1799 26.8823 16.8574L26.8796 16.858Z" fill="url(#paint0_linear_123_2109)"/>
</g>
<defs>
<linearGradient id="paint0_linear_123_2109" x1="0.000976563" y1="0.126221" x2="-3.64319" y2="18.7852" gradientUnits="userSpaceOnUse">
<stop offset="0.27" stop-color="#EF4948"/>
<stop offset="1" stop-color="#A9518B"/>
</linearGradient>
<clipPath id="clip0_123_2109">
<rect width="27" height="24" fill="white"/>
</clipPath>
</defs>
</svg>
