<svg width="58" height="58" viewBox="0 0 58 58" fill="none" xmlns="http://www.w3.org/2000/svg">
<g filter="url(#filter0_dddd_123_2186)">
<circle cx="28.667" cy="29" r="24" fill="white"/>
<circle cx="28.667" cy="29" r="23.25" stroke="url(#paint0_linear_123_2186)" stroke-width="1.5"/>
<circle cx="28.667" cy="29" r="23.25" stroke="url(#paint1_linear_123_2186)" stroke-width="1.5"/>
<circle cx="28.667" cy="29" r="23.25" stroke="url(#paint2_linear_123_2186)" stroke-width="1.5"/>
</g>
<g clip-path="url(#clip0_123_2186)">
<path d="M25.3793 17.1276C25.2449 17.1309 25.1144 17.1423 24.9902 17.163C23.9951 17.3297 23.0939 18.1659 22.1867 18.4897C21.2795 18.8134 19.7552 18.8423 18.9884 19.3042C18.2213 19.7661 17.9951 20.7917 17.4131 21.365C16.8311 21.9383 15.5009 22.4452 15.1376 23.0965C14.312 26.4667 18.2051 28.8534 22.2188 30.1471C18.2126 30.5815 14.3435 31.4954 15.1649 33.2608C15.5282 33.6036 16.8581 33.8702 17.4401 34.172C18.0221 34.4737 18.248 35.0138 19.0151 35.2569C19.7819 35.5001 21.3059 35.5153 22.2134 35.6857C23.1206 35.8562 24.0224 36.2962 25.0175 36.384C25.1417 36.3948 25.2716 36.4002 25.406 36.4026C26.3486 36.4152 27.5093 36.2318 28.4063 36.2318C29.4308 36.2318 30.8006 36.4717 31.7957 36.384C32.7908 36.2962 33.6908 35.8561 34.5977 35.6857C35.5052 35.5153 37.0298 35.5 37.7969 35.2569C38.5637 35.0137 38.7902 34.4737 39.3722 34.1719C39.9542 33.8701 41.2841 33.6035 41.6474 33.2607C43.2764 31.5494 38.9471 30.6036 34.5821 30.1499C38.9402 28.8079 43.2419 26.3323 41.6204 23.0964C41.2571 22.4451 39.9272 21.9382 39.3449 21.3649C38.7629 20.7916 38.5367 19.7661 37.7699 19.3041C37.0028 18.8422 35.4785 18.8133 34.571 18.4896C33.6641 18.1658 32.7632 17.3296 31.7684 17.1629C30.7733 16.9962 29.4035 17.452 28.379 17.452C27.4823 17.452 26.3219 17.1031 25.3793 17.1276ZM28.4978 26.1978C29.0165 26.1978 29.5301 26.3 30.0092 26.4985C30.4884 26.697 30.9238 26.9879 31.2905 27.3547C31.6572 27.7215 31.9481 28.1569 32.1466 28.6361C32.345 29.1153 32.4471 29.6289 32.447 30.1476C32.447 31.1949 32.0309 32.1994 31.2903 32.9401C30.5497 33.6807 29.5452 34.0968 28.4978 34.0968C27.9792 34.0969 27.4656 33.9947 26.9865 33.7963C26.5073 33.5978 26.0719 33.3069 25.7052 32.9402C25.3384 32.5734 25.0475 32.1381 24.849 31.6589C24.6505 31.1797 24.5484 30.6662 24.5483 30.1476C24.5483 29.6289 24.6504 29.1152 24.8489 28.636C25.0473 28.1568 25.3382 27.7214 25.705 27.3546C26.0717 26.9878 26.5071 26.6969 26.9864 26.4984C27.4656 26.2999 27.9792 26.1977 28.4978 26.1978ZM31.1939 29.8369C31.1129 29.8383 31.0356 29.8718 30.9791 29.93C30.9227 29.9882 30.8916 30.0665 30.8927 30.1476C30.8927 30.4791 30.8258 30.7932 30.7043 31.0793C30.5834 31.3657 30.4076 31.624 30.191 31.8408C29.9741 32.0578 29.7161 32.2328 29.4296 32.3538C29.1437 32.4749 28.8293 32.5419 28.4978 32.5419C28.4572 32.5413 28.4168 32.5487 28.3791 32.5638C28.3413 32.5789 28.307 32.6013 28.278 32.6298C28.249 32.6583 28.226 32.6923 28.2103 32.7298C28.1946 32.7673 28.1865 32.8076 28.1865 32.8482C28.1865 32.8889 28.1946 32.9291 28.2103 32.9666C28.226 33.0041 28.249 33.0381 28.278 33.0666C28.307 33.0951 28.3413 33.1176 28.3791 33.1327C28.4168 33.1478 28.4572 33.1552 28.4978 33.1545C28.9121 33.1545 29.3084 33.0704 29.6684 32.9181C30.0287 32.7658 30.3521 32.5457 30.6242 32.2739C30.896 32.002 31.1165 31.6781 31.2689 31.3182C31.4213 30.9581 31.5053 30.5618 31.5053 30.1476C31.5059 30.1065 31.4983 30.0658 31.4828 30.0278C31.4673 29.9898 31.4444 29.9553 31.4154 29.9264C31.3863 29.8974 31.3518 29.8746 31.3137 29.8592C31.2757 29.8438 31.235 29.8363 31.1939 29.8369ZM41.8796 33.858C41.5364 34.1052 41.1698 34.187 40.7792 34.3146C40.3178 34.4655 39.8381 34.6195 39.6506 34.7166C39.4634 34.8137 39.3077 34.9699 39.0617 35.1919C38.8154 35.4138 38.471 35.6855 37.9796 35.8413C37.4879 35.9971 36.9026 36.0531 36.305 36.1093C35.7071 36.1655 35.1035 36.214 34.7078 36.2883C33.9167 36.437 32.9882 36.894 31.8467 36.9947C30.7055 37.0954 29.3321 36.8449 28.4036 36.8449C27.5903 36.8449 26.4242 37.0297 25.3949 37.0157C25.3842 37.015 25.3735 37.014 25.3628 37.0127C25.2302 37.0097 25.0982 37.0053 24.9662 36.9936C23.8247 36.8929 22.8947 36.4358 22.1033 36.2872C21.7076 36.2128 21.1052 36.1644 20.5076 36.1082C19.9097 36.052 19.3241 35.9959 18.833 35.8402C18.3413 35.6843 17.9969 35.4127 17.7509 35.1907C17.5046 34.9688 17.348 34.8126 17.1608 34.7155C16.9736 34.6184 16.4945 34.4643 16.0328 34.3135C15.6719 34.1955 15.3314 34.1167 15.011 33.9105C14.984 34.2182 15.011 34.5481 15.0956 34.9036C15.4592 35.5549 16.7888 36.0618 17.3711 36.6351C17.9531 37.2084 18.1784 38.2339 18.9455 38.6959C19.7123 39.1579 21.2366 39.1867 22.1438 39.5104C23.051 39.8342 23.9531 40.6704 24.9482 40.8371C25.0724 40.8578 25.2023 40.8691 25.3364 40.8725C26.2793 40.8971 27.4403 40.548 28.3373 40.548C29.3615 40.548 30.7313 41.0038 31.7261 40.8371C32.7212 40.6704 33.6212 39.8342 34.5281 39.5104C35.4356 39.1868 36.9608 39.1579 37.7276 38.6959C38.4947 38.2339 38.7209 37.2084 39.3029 36.6351C39.8852 36.0618 41.2151 35.5549 41.5784 34.9036C41.7665 34.5277 41.8631 34.1799 41.8823 33.8574L41.8796 33.858Z" fill="url(#paint3_linear_123_2186)"/>
</g>
<defs>
<filter id="filter0_dddd_123_2186" x="0.166992" y="0.5" width="57" height="57" filterUnits="userSpaceOnUse" color-interpolation-filters="sRGB">
<feFlood flood-opacity="0" result="BackgroundImageFix"/>
<feColorMatrix in="SourceAlpha" type="matrix" values="0 0 0 0 0 0 0 0 0 0 0 0 0 0 0 0 0 0 127 0" result="hardAlpha"/>
<feOffset dx="-1.5" dy="1.5"/>
<feGaussianBlur stdDeviation="0.75"/>
<feComposite in2="hardAlpha" operator="out"/>
<feColorMatrix type="matrix" values="0 0 0 0 1 0 0 0 0 0 0 0 0 0 0.658824 0 0 0 0.2 0"/>
<feBlend mode="hard-light" in2="BackgroundImageFix" result="effect1_dropShadow_123_2186"/>
<feColorMatrix in="SourceAlpha" type="matrix" values="0 0 0 0 0 0 0 0 0 0 0 0 0 0 0 0 0 0 127 0" result="hardAlpha"/>
<feOffset dx="1.5" dy="-1.5"/>
<feGaussianBlur stdDeviation="1.5"/>
<feComposite in2="hardAlpha" operator="out"/>
<feColorMatrix type="matrix" values="0 0 0 0 1 0 0 0 0 0.392157 0 0 0 0 0.388235 0 0 0 0.4 0"/>
<feBlend mode="hard-light" in2="effect1_dropShadow_123_2186" result="effect2_dropShadow_123_2186"/>
<feColorMatrix in="SourceAlpha" type="matrix" values="0 0 0 0 0 0 0 0 0 0 0 0 0 0 0 0 0 0 127 0" result="hardAlpha"/>
<feOffset dx="1.5" dy="1.5"/>
<feGaussianBlur stdDeviation="1.5"/>
<feComposite in2="hardAlpha" operator="out"/>
<feColorMatrix type="matrix" values="0 0 0 0 0.662745 0 0 0 0 0.317647 0 0 0 0 0.545098 0 0 0 0.32 0"/>
<feBlend mode="hard-light" in2="effect2_dropShadow_123_2186" result="effect3_dropShadow_123_2186"/>
<feColorMatrix in="SourceAlpha" type="matrix" values="0 0 0 0 0 0 0 0 0 0 0 0 0 0 0 0 0 0 127 0" result="hardAlpha"/>
<feOffset dx="-1.5" dy="-1.5"/>
<feGaussianBlur stdDeviation="1.5"/>
<feComposite in2="hardAlpha" operator="out"/>
<feColorMatrix type="matrix" values="0 0 0 0 0.662745 0 0 0 0 0.317647 0 0 0 0 0.545098 0 0 0 0.32 0"/>
<feBlend mode="hard-light" in2="effect3_dropShadow_123_2186" result="effect4_dropShadow_123_2186"/>
<feBlend mode="normal" in="SourceGraphic" in2="effect4_dropShadow_123_2186" result="shape"/>
</filter>
<linearGradient id="paint0_linear_123_2186" x1="17.042" y1="7.25" x2="7.9702" y2="42.796" gradientUnits="userSpaceOnUse">
<stop offset="0.593445" stop-color="#A9518B"/>
<stop offset="1" stop-color="#A13332"/>
</linearGradient>
<linearGradient id="paint1_linear_123_2186" x1="39.167" y1="9.125" x2="25.667" y2="41.375" gradientUnits="userSpaceOnUse">
<stop stop-color="#FF6463"/>
<stop offset="0.421574" stop-opacity="0"/>
</linearGradient>
<linearGradient id="paint2_linear_123_2186" x1="39.167" y1="9.125" x2="15.917" y2="48.875" gradientUnits="userSpaceOnUse">
<stop offset="0.578426" stop-opacity="0"/>
<stop offset="1" stop-color="#FF00A8"/>
</linearGradient>
<linearGradient id="paint3_linear_123_2186" x1="15.001" y1="17.1262" x2="11.3568" y2="35.7852" gradientUnits="userSpaceOnUse">
<stop offset="0.27" stop-color="#EF4948"/>
<stop offset="1" stop-color="#A9518B"/>
</linearGradient>
<clipPath id="clip0_123_2186">
<rect width="27" height="24" fill="white" transform="translate(15 17)"/>
</clipPath>
</defs>
</svg>
