<svg width="49" height="48" viewBox="0 0 49 48" fill="none" xmlns="http://www.w3.org/2000/svg">
<circle cx="24.333" cy="24" r="24" fill="white"/>
<circle cx="24.333" cy="24" r="23.25" stroke="black" stroke-opacity="0.41" stroke-width="1.5" style="mix-blend-mode:overlay"/>
<g clip-path="url(#clip0_123_2239)">
<path d="M15.6465 31.7539L23.2465 35.8462V31.4769L20.2003 29.8462L15.6465 31.7539Z" fill="url(#paint0_linear_123_2239)"/>
<path d="M23 16.8923L20.1077 13.0769L15.123 30.4923L19.6461 28.5846L23 16.8923Z" fill="url(#paint1_linear_123_2239)"/>
<path d="M23.923 15.8462L26.6615 12.2462H21.1846L23.923 15.8462Z" fill="url(#paint2_linear_123_2239)"/>
<path d="M32.7226 30.4923L27.738 13.0461L24.8457 16.8923L28.1995 28.5846L32.7226 30.4923Z" fill="url(#paint3_linear_123_2239)"/>
<path d="M23.9226 18.6154L21.0303 28.7385L23.9226 30.3077L26.8149 28.7385L23.9226 18.6154Z" fill="url(#paint4_linear_123_2239)"/>
<path d="M24.5996 31.4769V35.8462L32.1996 31.7539L27.6765 29.8462L24.5996 31.4769Z" fill="url(#paint5_linear_123_2239)"/>
</g>
<defs>
<linearGradient id="paint0_linear_123_2239" x1="15.6465" y1="29.8462" x2="14.8142" y2="34.5944" gradientUnits="userSpaceOnUse">
<stop offset="0.27" stop-color="#EF4948"/>
<stop offset="1" stop-color="#A9518B"/>
</linearGradient>
<linearGradient id="paint1_linear_123_2239" x1="15.123" y1="13.0769" x2="9.50372" y2="24.524" gradientUnits="userSpaceOnUse">
<stop offset="0.27" stop-color="#EF4948"/>
<stop offset="1" stop-color="#A9518B"/>
</linearGradient>
<linearGradient id="paint2_linear_123_2239" x1="21.1846" y1="12.2462" x2="20.765" y2="15.1214" gradientUnits="userSpaceOnUse">
<stop offset="0.27" stop-color="#EF4948"/>
<stop offset="1" stop-color="#A9518B"/>
</linearGradient>
<linearGradient id="paint3_linear_123_2239" x1="24.8457" y1="13.0461" x2="19.2104" y2="24.5056" gradientUnits="userSpaceOnUse">
<stop offset="0.27" stop-color="#EF4948"/>
<stop offset="1" stop-color="#A9518B"/>
</linearGradient>
<linearGradient id="paint4_linear_123_2239" x1="21.0303" y1="18.6154" x2="17.4676" y2="26.5539" gradientUnits="userSpaceOnUse">
<stop offset="0.27" stop-color="#EF4948"/>
<stop offset="1" stop-color="#A9518B"/>
</linearGradient>
<linearGradient id="paint5_linear_123_2239" x1="24.5996" y1="29.8462" x2="23.7673" y2="34.5944" gradientUnits="userSpaceOnUse">
<stop offset="0.27" stop-color="#EF4948"/>
<stop offset="1" stop-color="#A9518B"/>
</linearGradient>
<clipPath id="clip0_123_2239">
<rect width="17.8462" height="24" fill="white" transform="translate(15 12)"/>
</clipPath>
</defs>
</svg>
