<svg width="28" height="28" viewBox="0 0 28 28" fill="none" xmlns="http://www.w3.org/2000/svg">
<path d="M19.8333 4.08325H8.16661C4.66661 4.08325 2.33327 5.83325 2.33327 9.91659V18.0833C2.33327 22.1666 4.66661 23.9166 8.16661 23.9166H19.8333C23.3333 23.9166 25.6666 22.1666 25.6666 18.0833V9.91659C25.6666 5.83325 23.3333 4.08325 19.8333 4.08325ZM20.3816 11.1883L16.7299 14.1049C15.9599 14.7233 14.9799 15.0266 13.9999 15.0266C13.0199 15.0266 12.0283 14.7233 11.2699 14.1049L7.61828 11.1883C7.24494 10.8849 7.18661 10.3249 7.47828 9.95159C7.78161 9.57825 8.32994 9.50825 8.70328 9.81159L12.3549 12.7283C13.2416 13.4399 14.7466 13.4399 15.6333 12.7283L19.2849 9.81159C19.6583 9.50825 20.2183 9.56659 20.5099 9.95159C20.8133 10.3249 20.7549 10.8849 20.3816 11.1883Z" fill="url(#paint0_linear_369_53)"/>
<defs>
<linearGradient id="paint0_linear_369_53" x1="2.33327" y1="4.08325" x2="-0.614909" y2="19.7048" gradientUnits="userSpaceOnUse">
<stop stop-color="#A13332"/>
<stop offset="1" stop-color="#A9518B"/>
</linearGradient>
</defs>
</svg>
