<svg width="40" height="40" viewBox="0 0 40 40" fill="none" xmlns="http://www.w3.org/2000/svg">
<path d="M-0.00012207 40L2.81154 29.7283C1.07654 26.7217 0.164878 23.3133 0.166545 19.8183C0.171545 8.89167 9.06321 0 19.9882 0C25.2899 0.00166667 30.2665 2.06667 34.0099 5.81333C37.7515 9.56 39.8115 14.54 39.8099 19.8367C39.8049 30.765 30.9132 39.6567 19.9882 39.6567C16.6715 39.655 13.4032 38.8233 10.5082 37.2433L-0.00012207 40ZM10.9949 33.655C13.7882 35.3133 16.4549 36.3067 19.9815 36.3083C29.0615 36.3083 36.4582 28.9183 36.4632 19.8333C36.4665 10.73 29.1049 3.35 19.9949 3.34667C10.9082 3.34667 3.51654 10.7367 3.51321 19.82C3.51154 23.5283 4.59821 26.305 6.42321 29.21L4.75821 35.29L10.9949 33.655ZM29.9732 24.5483C29.8499 24.3417 29.5199 24.2183 29.0232 23.97C28.5282 23.7217 26.0932 22.5233 25.6382 22.3583C25.1849 22.1933 24.8549 22.11 24.5232 22.6067C24.1932 23.1017 23.2432 24.2183 22.9549 24.5483C22.6665 24.8783 22.3765 24.92 21.8815 24.6717C21.3865 24.4233 19.7899 23.9017 17.8982 22.2133C16.4265 20.9 15.4315 19.2783 15.1432 18.7817C14.8549 18.2867 15.1132 18.0183 15.3599 17.7717C15.5832 17.55 15.8549 17.1933 16.1032 16.9033C16.3549 16.6167 16.4365 16.41 16.6032 16.0783C16.7682 15.7483 16.6865 15.4583 16.5615 15.21C16.4365 14.9633 15.4465 12.525 15.0349 11.5333C14.6315 10.5683 14.2232 10.6983 13.9199 10.6833L12.9699 10.6667C12.6399 10.6667 12.1032 10.79 11.6499 11.2867C11.1965 11.7833 9.91654 12.98 9.91654 15.4183C9.91654 17.8567 11.6915 20.2117 11.9382 20.5417C12.1865 20.8717 15.4299 25.875 20.3982 28.02C21.5799 28.53 22.5032 28.835 23.2215 29.0633C24.4082 29.44 25.4882 29.3867 26.3415 29.26C27.2932 29.1183 29.2715 28.0617 29.6849 26.905C30.0982 25.7467 30.0982 24.755 29.9732 24.5483Z" fill="url(#paint0_linear_25_729)"/>
<defs>
<linearGradient id="paint0_linear_25_729" x1="-0.00012207" y1="0" x2="-6.93395" y2="31.0809" gradientUnits="userSpaceOnUse">
<stop stop-color="#A13332"/>
<stop offset="1" stop-color="#A9518B"/>
</linearGradient>
</defs>
</svg>
